<?xml version="1.0" encoding="utf-8"?>
<!-- Generator: Adobe Illustrator 22.0.1, SVG Export Plug-In . SVG Version: 6.00 Build 0)  -->
<svg version="1.1" id="Layer_1" xmlns="http://www.w3.org/2000/svg" xmlns:xlink="http://www.w3.org/1999/xlink" x="0px" y="0px"
	 viewBox="0 0 1123.3 656.5" style="enable-background:new 0 0 1123.3 656.5;" xml:space="preserve">
<style type="text/css">
	.st0{fill:none;stroke:#231F20;stroke-linecap:round;stroke-miterlimit:10;}
	.st1{fill:#FF1D25;}
	.st2{fill:none;stroke:#E72D00;stroke-width:2;stroke-linecap:round;stroke-miterlimit:10;}
	.st3{fill:#E72D00;}
	.st4{fill:none;stroke:#388C5E;stroke-width:2;stroke-linecap:round;stroke-miterlimit:10;}
	.st5{fill:#388C5E;}
	.st6{fill:none;}
	.st7{fill:#FFFFFF;}
	.st8{fill:none;stroke:#FF1D25;stroke-width:2;stroke-linecap:round;stroke-miterlimit:10;}
	.st9{fill:#E72D00;stroke:#E72D00;stroke-linecap:round;stroke-miterlimit:10;}
	.st10{fill:#388C5E;stroke:#388C5E;stroke-linecap:round;stroke-miterlimit:10;}
	.st11{clip-path:url(#SVGID_2_);}
	.st12{clip-path:url(#SVGID_4_);}
	.st13{clip-path:url(#SVGID_6_);}
	.st14{fill:#231F20;}
	.st15{font-family:'Roboto-MediumItalic';}
	.st16{font-size:15px;}
	.st17{font-size:14.3251px;}
	.st18{font-family:'Roboto-Regular';}
	.st19{font-size:15.4365px;}
	.st20{font-family:'Roboto-Medium';}
	.st21{font-size:17px;}
	.st22{font-family:'Roboto-BlackItalic';}
	.st23{font-size:26px;}
</style>
<g>
	<g>
		<g>
			<g>
				<defs>
					<polygon id="SVGID_1_" points="636.5,1886.1 728.6,1886.1 728.6,1897 636.5,1897 636.5,1886.1 					"/>
				</defs>
				<clipPath id="SVGID_2_">
					<use xlink:href="#SVGID_1_"  style="overflow:visible;"/>
				</clipPath>
				<g id="layer1_1_" transform="translate(-46.019458,-272.45092)" class="st11">
					<g id="g3025_1_" transform="matrix(4.3163477,0,0,-4.3163477,-1197.3265,7114.0577)">
						<g id="g3027_1_">
							<g id="g3033_1_" transform="translate(0,869.563)">
								<defs>
									<polygon id="SVGID_3_" points="506.8,316.7 858.2,316.7 858.2,1062.2 506.8,1062.2 506.8,316.7 									"/>
								</defs>
								<clipPath id="SVGID_4_">
									<use xlink:href="#SVGID_3_"  style="overflow:visible;"/>
								</clipPath>
							</g>
						</g>
					</g>
				</g>
			</g>
		</g>
	</g>
</g>
<line class="st0" x1="182.2" y1="538.3" x2="903.2" y2="538.3"/>
<line class="st0" x1="542.2" y1="538.3" x2="543.2" y2="49.3"/>
<text transform="matrix(1 0 0 1 549.6969 237.6612)" class="st15 st16">Chicago Tribune</text>
<text transform="matrix(1 0 0 1 555.6969 96.6612)" class="st15 st16">The New York Times</text>
<text transform="matrix(1 0 0 1 549.6969 169.6612)" class="st15 st16">Los Angeles Times</text>
<text transform="matrix(1 0 0 1 555.6969 328.6613)" class="st15 st16">Houston Chronicle</text>
<text transform="matrix(1 0 0 1 551.6969 417.6613)" class="st15 st17">Arizona Republic</text>
<text transform="matrix(1 0 0 1 549.6969 507.6613)" class="st15 st17">The Philadelphia Inquirer</text>
<text transform="matrix(0.9717 0 0 1 481.6959 94.5436)" class="st18 st19">-6%</text>
<text transform="matrix(1 0 0 1 415.696 237.7379)" class="st18 st16">-24%</text>
<text transform="matrix(1 0 0 1 434.696 330.7379)" class="st18 st16">-18%</text>
<text transform="matrix(1 0 0 1 485.6959 417.7379)" class="st18 st16">-4%</text>
<text transform="matrix(1 0 0 1 387.696 507.7379)" class="st18 st16">-31%</text>
<text transform="matrix(1 0 0 1 501.6959 169.7379)" class="st18 st16">-1%</text>
<g>
	<line class="st1" x1="514.4" y1="89.8" x2="543.4" y2="89.7"/>
	<g>
		<line class="st8" x1="516.6" y1="89.8" x2="542.4" y2="89.7"/>
		<g>
			<polygon class="st1" points="520.6,93.2 517.2,89.8 520.6,86.4 517.7,86.4 514.4,89.8 517.7,93.2 			"/>
		</g>
		<g>
			<rect x="541.4" y="83.2" class="st1" width="2" height="13"/>
		</g>
	</g>
</g>
<g>
	<line class="st1" x1="533" y1="165.3" x2="543" y2="165"/>
	<g>
		<line class="st2" x1="535.3" y1="165.2" x2="542" y2="165"/>
		<g>
			<polygon class="st3" points="539.3,168.5 535.9,165.2 539.2,161.7 536.3,161.8 533,165.3 536.5,168.6 			"/>
		</g>
		<g>
			
				<rect x="541" y="158.5" transform="matrix(0.9997 -2.502421e-02 2.502421e-02 0.9997 -3.9601 13.6148)" class="st3" width="2" height="13"/>
		</g>
	</g>
</g>
<g>
	<line class="st1" x1="455.4" y1="232.8" x2="544.4" y2="232.7"/>
	<g>
		<line class="st8" x1="457.6" y1="232.8" x2="543.4" y2="232.7"/>
		<g>
			<polygon class="st1" points="461.6,236.2 458.2,232.8 461.6,229.4 458.7,229.4 455.4,232.8 458.7,236.2 			"/>
		</g>
		<g>
			<rect x="542.4" y="226.2" class="st1" width="2" height="13"/>
		</g>
	</g>
</g>
<g>
	<line class="st1" x1="474.4" y1="324.8" x2="543.4" y2="324.7"/>
	<g>
		<line class="st8" x1="476.6" y1="324.8" x2="542.4" y2="324.7"/>
		<g>
			<polygon class="st1" points="480.6,328.2 477.2,324.8 480.6,321.4 477.7,321.4 474.4,324.8 477.7,328.2 			"/>
		</g>
		<g>
			<rect x="541.4" y="318.2" class="st1" width="2" height="13"/>
		</g>
	</g>
</g>
<g>
	<line class="st1" x1="518.7" y1="412.8" x2="543.2" y2="413.3"/>
	<g>
		<line class="st2" x1="521" y1="412.8" x2="542.2" y2="413.3"/>
		<g>
			<polygon class="st3" points="524.9,416.3 521.6,412.8 525,409.5 522.2,409.5 518.7,412.8 522,416.2 			"/>
		</g>
		<g>
			
				<rect x="535.7" y="412.3" transform="matrix(2.050788e-02 -0.9998 0.9998 2.050788e-02 117.9004 946.8704)" class="st3" width="13" height="2"/>
		</g>
	</g>
</g>
<g>
	<line class="st1" x1="427.4" y1="503.8" x2="543.4" y2="503.7"/>
	<g>
		<line class="st8" x1="429.6" y1="503.8" x2="542.4" y2="503.7"/>
		<g>
			<polygon class="st1" points="433.6,507.2 430.2,503.8 433.6,500.4 430.7,500.4 427.4,503.8 430.7,507.2 			"/>
		</g>
		<g>
			<rect x="541.4" y="497.2" class="st1" width="2" height="13"/>
		</g>
	</g>
</g>
<polygon class="st9" points="343.2,558.5 353.7,552.4 353.7,564.5 "/>
<rect x="364" y="551.4" class="st6" width="180" height="15.8"/>
<text transform="matrix(1 0 0 1 364.0066 564.3272)" class="st20 st21">UNDERREPRESENTED</text>
<polygon class="st10" points="725.2,558.5 714.7,564.5 714.7,552.4 "/>
<rect x="551" y="551.4" class="st6" width="172" height="21.7"/>
<text transform="matrix(1 0 0 1 551.0066 564.3272)" class="st20 st21">OVERREPRESENTED</text>
<line class="st0" x1="542.9" y1="537.7" x2="542.9" y2="573.7"/>
<text transform="matrix(1 0 0 1 232.3508 35.775)" class="st22 st23">Representation of Black people at six biggest U.S. papers</text>
</svg>
