<?xml version="1.0" encoding="utf-8"?>
<!-- Generator: Adobe Illustrator 22.0.1, SVG Export Plug-In . SVG Version: 6.00 Build 0)  -->
<svg version="1.1" id="Layer_1" xmlns="http://www.w3.org/2000/svg" xmlns:xlink="http://www.w3.org/1999/xlink" x="0px" y="0px"
	 viewBox="0 0 1123.3 656.5" style="enable-background:new 0 0 1123.3 656.5;" xml:space="preserve">
<style type="text/css">
	.st0{clip-path:url(#SVGID_2_);}
	.st1{clip-path:url(#SVGID_4_);}
	.st2{clip-path:url(#SVGID_6_);}
	.st3{fill:#231F20;}
	.st4{fill:none;stroke:#231F20;stroke-linecap:round;stroke-miterlimit:10;}
	.st5{fill:none;}
	.st6{fill:none;stroke:#E72D00;stroke-width:2;stroke-linecap:round;stroke-miterlimit:10;}
	.st7{fill:#E72D00;}
	.st8{font-family:'Roboto-MediumItalic';}
	.st9{font-size:15px;}
	.st10{fill:none;stroke:#388C5E;stroke-width:2;stroke-linecap:round;stroke-miterlimit:10;}
	.st11{fill:#388C5E;}
	.st12{font-size:14.3251px;}
	.st13{font-family:'Roboto-Regular';}
	.st14{font-size:15.4365px;}
	.st15{fill:#E72D00;stroke:#E72D00;stroke-linecap:round;stroke-miterlimit:10;}
	.st16{font-family:'Roboto-Medium';}
	.st17{font-size:17px;}
	.st18{fill:#388C5E;stroke:#388C5E;stroke-linecap:round;stroke-miterlimit:10;}
	.st19{clip-path:url(#SVGID_8_);}
	.st20{clip-path:url(#SVGID_10_);}
	.st21{clip-path:url(#SVGID_12_);}
</style>
<g>
	<g>
		<g>
			<g>
				<g>
					<defs>
						<rect id="SVGID_1_" x="325.6" y="1300.1" width="92.1" height="11"/>
					</defs>
					<clipPath id="SVGID_2_">
						<use xlink:href="#SVGID_1_"  style="overflow:visible;"/>
					</clipPath>
					<g class="st0">
						<g>
							<g id="layer1_1_" transform="translate(-46.019458,-272.45092)">
								<g id="g3025_1_" transform="matrix(4.3163477,0,0,-4.3163477,-1197.3265,7114.0577)">
									<g id="g3027_1_">
										<defs>
											<rect id="SVGID_3_" x="-340.5" y="-1233" width="1516.3" height="3217.8"/>
										</defs>
										<clipPath id="SVGID_4_">
											<use xlink:href="#SVGID_3_"  style="overflow:visible;"/>
										</clipPath>
										<g id="g3033_1_" transform="translate(0,869.563)" class="st1">
											<g id="g3035_1_">
												<g id="g3037_1_">
													<g id="g3043_1_">
														<defs>
															<rect id="SVGID_5_" x="218.9" y="685" width="397.5" height="47"/>
														</defs>
														<clipPath id="SVGID_6_">
															<use xlink:href="#SVGID_5_"  style="overflow:visible;"/>
														</clipPath>
														<g id="g3045_1_" class="st2">
															<path id="path3051_1_" class="st3" d="M454.1,706.3c-0.4-0.3-1.2-1-1.6-1.4c-0.3,0.3-1,0.8-1.4,1.1l0,0
																c0.1,0,0.2,0.2,0.2,0.4v3c-0.3,0.2-0.9,0.6-1.2,0.8l-0.4-0.4v-3.6l0.6-0.4c0,0-0.8-0.7-1.1-1
																c-0.3,0.3-0.8,0.6-1.2,0.9l0,0c0.1,0,0.2,0.2,0.2,0.4v3.2c-0.3,0.2-0.8,0.5-1.1,0.7l-0.4-0.3v-3.6l0.5-0.4
																c0,0-0.7-0.6-1.1-0.9c-0.3,0.3-0.7,0.5-1.1,0.9l0,0c0.1,0.1,0.2,0.2,0.2,0.4v3.7l-0.4,0.3l-0.4-0.4l-0.2,0.2
																c0.3,0.3,1,0.9,1.5,1.3l1-0.9V710l1.4,1.2c0.4-0.3,1.7-1.1,1.7-1.1l1.3,1.1c0.4-0.3,1.4-0.9,2-1.2l0,0
																c-0.2-0.1-0.2-0.3-0.2-0.4v-3.3l0.5-0.4l0.4,0.4H454.1L454.1,706.3z M444.1,712.6c-0.4-0.5-0.7-0.7-1.2-0.7
																c-0.4,0-0.6,0.1-0.9,0.5l-0.4-0.4l-0.2,0.2l1.5,1.3C443.2,712.7,443.7,712.6,444.1,712.6L444.1,712.6"/>
															<path id="path3053_1_" class="st3" d="M444.4,706.2c-0.4-0.3-1.1-1-1.5-1.3c-0.3,0.3-0.9,0.7-1.3,1l0,0
																c0.1,0.1,0.2,0.2,0.2,0.4v3.5l-0.4,0.3l-0.5-0.4l-0.2,0.2c0.3,0.3,1,0.9,1.5,1.3l1.2-1l0,0c-0.2,0-0.2-0.1-0.2-0.5
																v-3.4l0.5-0.3l0.4,0.4L444.4,706.2L444.4,706.2z M419.8,706.3c-0.4-0.3-1.2-1-1.5-1.3c-0.3,0.3-0.9,0.7-1.3,1l0,0
																c0.1,0.1,0.2,0.2,0.2,0.4v5.7l-0.4,0.3l-0.4-0.4l-0.2,0.2c0.3,0.3,1,0.9,1.4,1.3l1.3-1v-0.1c-0.1,0-0.2-0.1-0.2-0.5
																v-5.6l0.5-0.4l0.4,0.4L419.8,706.3z M405.9,706.2c-0.3-0.3-1.2-1-1.5-1.3c-0.3,0.3-0.9,0.8-1.3,1v0.1
																c0.1,0,0.2,0.1,0.2,0.4v3c-0.3,0.2-0.9,0.6-1.2,0.8c-0.1-0.1-0.4-0.3-0.4-0.3v-3.7l0.5-0.4c0,0-0.7-0.6-1.1-0.9
																c-0.3,0.3-0.7,0.5-1.1,0.9l0,0c0.1,0.1,0.2,0.2,0.2,0.4v3.7l-0.4,0.3l-0.4-0.3l-0.2,0.2c0.3,0.3,1,0.8,1.5,1.3l1-0.9
																v-0.3l1.4,1.2c0.4-0.3,1.4-0.9,2-1.3l0,0l-0.3-0.4v-3.3l0.5-0.4l0.4,0.4L405.9,706.2L405.9,706.2z M461.9,705.8v1.8
																c-0.2,0.1-0.5,0.2-0.7,0.3l-1.7-1.7h0.1c0.3,0.1,0.4,0.3,0.9,0.3C461.1,706.5,461.6,706.1,461.9,705.8L461.9,705.8
																L461.9,705.8z M463.6,711.2c0-0.6-0.7-1.4-1.6-1.4c-0.6,0-1,0.3-1.2,0.7l0,0V709l0.8-0.4l0.4,0.4
																c0.4-0.2,1.2-0.7,1.6-0.8l0,0c0,0-0.2-0.1-0.2-0.3v-1c0-0.1,0.2-0.3,0.2-0.3l0,0c-0.9-0.4-2.2-1.1-2.8-1.6
																c-0.3,0.3-0.7,0.6-1.3,0.6c-0.5,0-0.7-0.2-0.7-0.4c0-0.1,0.2-0.1,0.2-0.2c0-0.1-0.1-0.1-0.2-0.1s-0.3,0.2-0.3,0.4
																c0,0.4,0.3,0.7,0.9,1.4l1.1,1.2c-0.5,0.2-1.2,0.5-1.5,0.7l0,0c0,0,0.3,0.1,0.2,0.3v0.9c0,0.1-0.2,0.3-0.2,0.3l0,0
																c0.9,0.3,2.1,1,2.8,1.5c0.2-0.2,0.6-0.5,1-0.5s0.4,0.2,0.4,0.3s-0.1,0.1-0.1,0.2c0,0.1,0,0.1,0.1,0.1
																C463.4,711.5,463.6,711.4,463.6,711.2"/>
														</g>
													</g>
													<path id="path3055_1_" class="st3" d="M457.1,708.8c-0.3,0.4-0.9,1.1-1.2,1.6l0,0V708L457.1,708.8z M458.4,709.3
														l-2.6-1.6v-1.1c0.3-0.1,1-0.4,1.4-0.7l0.6,0.6c0.2,0.2,0.1,0.4,0.4,0.4c0.1,0,0.2-0.1,0.2-0.2c0-0.1-0.1-0.1-0.1-0.2
														l-1.7-1.6c-0.6,0.4-1.8,0.9-2.3,1.1l0,0c0.1,0,0.2,0.1,0.2,0.3v3.1c0,0.3-0.1,0.3-0.2,0.4l0,0c0.9,0.3,2.2,1,2.8,1.4
														C457.4,710.6,458,709.9,458.4,709.3L458.4,709.3z M439.4,706.1v5.6c-0.1,0-0.2,0-0.3,0c-0.4,0-1.1,0.1-1.5,0.3
														c-1.3-0.2-2.8-1.3-2.8-3.3c0-1.7,1.3-2.8,3.1-2.8C438.4,705.8,439,705.9,439.4,706.1L439.4,706.1z M441,713.2
														c0-0.9-0.6-1.3-1.3-1.5v-5.5c0.9,0.5,1,1,1,1.2c0,0.1-0.1,0.1-0.1,0.2c0,0.1,0.1,0.1,0.2,0.1s0.1-0.1,0.1-0.3
														c0-1.3-1.3-3-3.9-3c-2,0-3.7,1.5-3.7,3.5c0,2.8,2.4,3.8,4.1,3.9c-0.6,0.1-1.6,0.3-2.4,0.3c-1,0-1.7-0.6-1.7-1
														c0-0.2,0.2-0.2,0.2-0.4c0-0.1,0-0.2-0.1-0.2c-0.2,0-0.3,0.2-0.3,0.3c0,1.1,0.8,2.6,2.5,2.6s2.9-0.6,4.2-0.6
														c0.9,0,1.1,0.3,1.1,0.8l0.2-0.1C440.9,713.8,441,713.5,441,713.2z M427.9,705.8v1.8c-0.2,0.1-0.5,0.2-0.7,0.3l-1.7-1.7
														h0.1c0.3,0.1,0.4,0.3,0.9,0.3C427.1,706.5,427.6,706.1,427.9,705.8L427.9,705.8z M429.6,711.2c0-0.6-0.7-1.4-1.6-1.4
														c-0.6,0-1,0.3-1.2,0.7l0,0V709l0.8-0.4l0.4,0.4c0.4-0.2,1.2-0.7,1.7-0.9l0,0c0,0-0.2-0.1-0.2-0.3v-1
														c0-0.1,0.2-0.3,0.2-0.3l0,0c-0.9-0.4-2.2-1.1-2.8-1.6c-0.3,0.3-0.7,0.6-1.3,0.6c-0.5,0-0.7-0.2-0.7-0.4
														c0-0.1,0.2-0.1,0.2-0.2c0-0.1-0.1-0.1-0.2-0.1s-0.3,0.2-0.3,0.4c0,0.4,0.3,0.7,0.9,1.4l1.1,1.2
														c-0.5,0.2-1.2,0.5-1.5,0.7l0,0c0,0,0.2,0.1,0.2,0.3v0.9c0,0.1-0.2,0.3-0.2,0.3l0,0c0.9,0.3,2.1,1,2.8,1.5
														c0.2-0.2,0.6-0.5,1-0.5s0.4,0.2,0.4,0.3s-0.1,0.1-0.1,0.2c0,0.1,0,0.1,0.1,0.1C429.5,711.5,429.7,711.4,429.6,711.2"/>
													<path id="path3057_1_" class="st3" d="M423.2,708.8c-0.3,0.4-0.9,1.1-1.2,1.6l0,0V708L423.2,708.8z M424.5,709.3
														l-2.6-1.6v-1.1c0.3-0.1,1-0.4,1.4-0.7l0.6,0.6c0.2,0.2,0.1,0.4,0.4,0.4c0.1,0,0.2-0.1,0.2-0.2c0-0.1-0.1-0.1-0.1-0.2
														l-1.7-1.6c-0.6,0.4-1.8,0.9-2.3,1.1l0,0c0.1,0,0.2,0.1,0.2,0.3v3.1c0,0.3-0.1,0.3-0.2,0.4l0,0c0.9,0.3,2.2,1,2.8,1.4
														C423.5,710.6,424.1,709.9,424.5,709.3L424.5,709.3z M415.3,708.8c-0.3,0.4-0.9,1.1-1.2,1.6l0,0V708L415.3,708.8z
														 M416.6,709.3l-2.6-1.6v-1.1c0.3-0.1,1-0.4,1.4-0.7l0.6,0.6c0.2,0.2,0.1,0.4,0.4,0.4c0.1,0,0.2-0.1,0.2-0.2
														c0-0.1-0.1-0.1-0.1-0.2l-1.7-1.6c-0.6,0.4-1.8,0.9-2.3,1.1l0,0c0,0,0.1,0.1,0.1,0.3v3.1c0,0.3-0.1,0.4-0.1,0.4l0,0
														c0.9,0.3,2.2,1,2.8,1.4C415.6,710.6,416.2,709.9,416.6,709.3L416.6,709.3z M409.6,706v3.4c-0.4,0.2-1.2,0.7-1.6,1.1
														l0,0v-3.8c0.4-0.2,1.2-0.6,1.5-0.8L409.6,706L409.6,706z M411.7,705.4c0-1.4-0.8-2.4-2.1-2.4c-1,0-1.8,0.5-2.8,0.5
														c-0.6,0-0.9-0.2-1-0.4h-0.1c0.1,1,0.8,1.6,1.7,1.6c1,0,1.8-0.6,2.9-0.6c0.7,0,1.1,0.4,1.1,0.7l0,0
														c-0.1-0.1-0.3-0.2-0.6-0.2c-0.6,0-1.2,0.4-1.3,1c-0.3-0.2-0.9-0.6-1.1-0.9c-0.7,0.4-1.7,0.9-2.3,1.2l0,0l0.2,0.3v3.1
														c0,0.2-0.1,0.3-0.2,0.4l0,0c1,0.3,2.2,1,2.8,1.5c0.6-0.4,1.6-1.1,2.2-1.4v-0.1c-0.1-0.1-0.2-0.1-0.2-0.4v-3.4
														c0-0.4,0-0.7,0.4-0.7C411.5,705.4,411.6,705.4,411.7,705.4L411.7,705.4L411.7,705.4z M396.3,708.5l-1.2,3.4l-1.3-3.4
														H396.3z M399.7,706.3l-1.5-1.4c-0.4,0.3-0.8,0.5-1.3,0.9v0.1c0.1,0,0.2,0.2,0.2,0.3s0,0.1,0,0.2l-0.4,1.3h-3l-0.4-1.1
														c0.6,0,0.9-0.1,1.2-0.2l0.3,0.5l0.2-0.1l-1-1.9c-0.4,0.2-0.9,0.4-1.4,0.4c-0.6,0-1.1-0.2-1.3-0.4c0,0-0.1,0-0.1,0.1
														c0.2,0.8,0.8,1.5,1.8,1.5l2.1,5.7c-0.2,0.6-0.4,0.8-1,0.8c-0.5,0-1-0.2-1-0.8c0-0.3,0.3-0.2,0.3-0.4
														c0-0.1-0.1-0.1-0.2-0.1c-0.2,0-0.4,0.2-0.4,0.7c0,1,0.9,1.6,1.8,1.6c0.8,0,1.1-0.3,1.4-0.6c0.1,0.3,0.4,0.5,0.6,0.5
														l0.1-0.1c-0.1-0.2-0.2-0.3-0.2-0.6c0-0.1,0.1-0.4,0.1-0.5l2.3-6.4l0.4-0.2l0.4,0.4V706.3L399.7,706.3z M387.1,705.8
														v1.8c-0.2,0.1-0.5,0.2-0.7,0.3l-1.7-1.7h0.1c0.3,0.1,0.4,0.3,0.9,0.3C386.2,706.5,386.8,706.1,387.1,705.8L387.1,705.8
														z M388.7,711.2c0-0.6-0.7-1.3-1.6-1.3c-0.6,0-0.9,0.3-1.2,0.7l0,0V709l0.8-0.4l0.4,0.4c0.4-0.2,1.2-0.7,1.6-0.8l0,0
														c0,0-0.2-0.1-0.2-0.3v-1c0-0.1,0.2-0.3,0.2-0.3l0,0c-0.9-0.4-2.2-1.1-2.8-1.6c-0.3,0.3-0.7,0.6-1.3,0.6
														c-0.5,0-0.7-0.2-0.7-0.4c0-0.1,0.2-0.1,0.2-0.2c0-0.1-0.1-0.1-0.2-0.1s-0.3,0.2-0.3,0.4c0,0.4,0.3,0.7,0.9,1.4l1.1,1.2
														c-0.5,0.2-1.2,0.5-1.5,0.7h0.1c0,0,0.1,0.1,0.1,0.3v0.9c0,0.1-0.1,0.3-0.1,0.3v0.1c0.9,0.3,2.1,1,2.8,1.4
														c0.2-0.2,0.5-0.5,1-0.5c0.4,0,0.4,0.2,0.4,0.3s-0.1,0.1-0.1,0.2c0,0.1,0,0.1,0.1,0.1
														C388.5,711.5,388.7,711.4,388.7,711.2L388.7,711.2z M381.8,705.8v3.6c-0.5,0.3-1.3,0.8-1.6,1.1l0,0v-3.7
														C380.6,706.6,381.3,706.1,381.8,705.8L381.8,705.8z M383.4,706.5c-0.8-0.3-2.2-1-2.8-1.6c-0.7,0.5-1.6,1.1-2.2,1.4
														v-0.1c0.2,0.1,0.2,0.2,0.2,0.4v3c0,0.3-0.1,0.4-0.2,0.4v-0.1c1,0.4,2,0.9,2.8,1.5c0.6-0.4,1.6-1,2.2-1.4l0,0
														c-0.1,0-0.2-0.2-0.2-0.4v-2.8C383.2,706.6,383.3,706.6,383.4,706.5L383.4,706.5z M375.4,706.9v5.1
														c-0.7,0.1-1.1,0.6-1.3,0.8l-0.7-0.6c0-0.8,0.2-1.4,0.5-2s0.5-1.3,0.5-1.8c0-0.8-0.5-1.4-1.6-2.4l0,0
														C373.5,706.5,374.5,706.9,375.4,706.9L375.4,706.9z M378.2,706.9l-1.1-2c-0.6,0.4-1.5,0.6-2.3,0.6
														c-1.6,0-2.6-0.3-3.2-0.6l-0.1,0.1c0.5,0.4,1.3,1.1,1.3,2.6c0,0.6-0.3,1.4-0.5,1.9c-0.2,0.6-0.4,0.8-0.4,1.6
														c0,1.4,0.8,2.1,1.9,2.7l0.1-0.1c-0.4-0.3-0.6-0.7-0.7-1.2l1.9,1.5c0.5-0.7,0.9-0.9,1.5-0.9c0.5,0,0.6,0.2,0.6,0.4
														c0,0.1-0.2,0.1-0.2,0.3c0,0.1,0.1,0.1,0.1,0.1c0.1,0,0.3-0.2,0.3-0.3c0-0.9-0.9-1.6-1.7-1.6c-0.1,0-0.2,0-0.3,0v-5.1
														c0.7,0,1.4-0.2,2-0.5l0.3,0.6L378.2,706.9L378.2,706.9z M438.9,711.2c0-0.1-0.1-0.1-0.1-0.1c-0.1,0-0.2,0.2-0.4,0.2
														c-0.4,0-0.7-0.3-0.7-0.7c0-1,1-1.4,1-2.6c0-1-1-1.5-2-1.7l-0.2,0.1c0.6,0.1,0.8,0.3,0.8,0.9c0,0.9-0.9,1.6-0.9,2.6
														c0,0.8,0.8,1.5,1.9,1.5c0.2,0,0.4-0.1,0.5-0.1C438.8,711.3,438.9,711.3,438.9,711.2"/>
												</g>
											</g>
										</g>
									</g>
								</g>
							</g>
						</g>
					</g>
				</g>
			</g>
			<line class="st4" x1="212" y1="546.1" x2="933" y2="546.1"/>
			<g>
				<line class="st5" x1="478.5" y1="240.6" x2="573" y2="242.1"/>
				<g>
					<line class="st6" x1="480.8" y1="240.6" x2="572" y2="242"/>
					<g>
						<polygon class="st7" points="484.8,244 481.4,240.6 484.9,237.3 482,237.2 478.5,240.6 481.9,244 						"/>
					</g>
					<g>
						
							<rect x="565.5" y="241.1" transform="matrix(1.586867e-02 -0.9999 0.9999 1.586867e-02 320.8887 810.1512)" class="st7" width="13" height="2"/>
					</g>
				</g>
			</g>
			<line class="st4" x1="572" y1="546.1" x2="573" y2="57.1"/>
			<text transform="matrix(1 0 0 1 579.5379 245.445)" class="st8 st9">Hispanic</text>
			<g>
				<line class="st5" x1="672.5" y1="93.6" x2="573" y2="94.1"/>
				<g>
					<line class="st10" x1="670.3" y1="93.6" x2="574" y2="94.1"/>
					<g>
						<polygon class="st11" points="666.2,90.2 669.7,93.6 666.3,97 669.2,97 672.5,93.6 669.1,90.2 						"/>
					</g>
					<g>
						
							<rect x="573" y="87.6" transform="matrix(1 -5.126819e-03 5.126819e-03 1 -0.4749 2.9441)" class="st11" width="2" height="13"/>
					</g>
				</g>
			</g>
			<text transform="matrix(1 0 0 1 529.5379 99.4449)" class="st8 st9">White</text>
			<text transform="matrix(1 0 0 1 579.5379 177.445)" class="st8 st9">Black</text>
			<text transform="matrix(1 0 0 1 531.5379 336.4449)" class="st8 st9">Asian</text>
			<g>
				<g>
					<line class="st6" x1="536.8" y1="420.6" x2="573.5" y2="420.6"/>
					<g>
						<polygon class="st7" points="540.8,423.9 537.4,420.6 540.8,417.2 537.9,417.2 534.5,420.6 537.9,423.9 						"/>
					</g>
					<g>
						<rect x="572.5" y="414.1" class="st7" width="2" height="13"/>
					</g>
				</g>
			</g>
			<text transform="matrix(1 0 0 1 581.5379 425.4449)" class="st8 st12">Female</text>
			<text transform="matrix(1 0 0 1 534.5379 515.4449)" class="st8 st12">Male</text>
			<text transform="matrix(0.9717 0 0 1 679.5371 100.3271)" class="st13 st14">29%</text>
			<text transform="matrix(1 0 0 1 439.537 245.5216)" class="st13 st9">-27%</text>
			<text transform="matrix(1 0 0 1 579.537 336.5216)" class="st13 st9">0%</text>
			<text transform="matrix(1 0 0 1 492.537 426.5216)" class="st13 st9">-10%</text>
			<text transform="matrix(1 7.150000e-03 -7.150000e-03 1 530.4705 178.3926)" class="st13 st9">-1%</text>
			<g>
				<line class="st5" x1="562.5" y1="173.8" x2="572.5" y2="173.6"/>
				<g>
					<line class="st6" x1="564.8" y1="173.8" x2="571.5" y2="173.6"/>
					<g>
						<polygon class="st7" points="568.9,177 565.4,173.7 568.7,170.3 565.8,170.3 562.5,173.8 566,177.1 						"/>
					</g>
					<g>
						
							<rect x="570.5" y="167.1" transform="matrix(0.9997 -2.502541e-02 2.502541e-02 0.9997 -4.1655 14.3566)" class="st7" width="2" height="13"/>
					</g>
				</g>
			</g>
			<g>
				<g>
					<line class="st10" x1="611.3" y1="510.6" x2="572.5" y2="510.6"/>
					<g>
						<polygon class="st11" points="607.3,507.2 610.7,510.6 607.3,513.9 610.1,513.9 613.5,510.6 610.1,507.2 						"/>
					</g>
					<g>
						<rect x="571.5" y="504.1" class="st11" width="2" height="13"/>
					</g>
				</g>
			</g>
			<text transform="matrix(1 0 0 1 618.5369 515.5216)" class="st13 st9">10%</text>
			<polygon class="st15" points="372.3,564.2 382.9,558.2 382.9,570.3 			"/>
			<rect x="393.2" y="557.2" class="st5" width="180" height="15.8"/>
			<text transform="matrix(1 0 0 1 393.1927 570.1112)" class="st16 st17">UNDERREPRESENTED</text>
			<polygon class="st18" points="757.4,565.2 746.9,571.3 746.9,559.2 			"/>
			<rect x="580.2" y="557.2" class="st5" width="172" height="21.7"/>
			<text transform="matrix(1 0 0 1 580.1927 570.1112)" class="st16 st17">OVERREPRESENTED</text>
			<line class="st4" x1="572" y1="543.5" x2="572" y2="579.5"/>
		</g>
	</g>
</g>
<g>
	<g>
		<g>
			<g>
				<defs>
					<polygon id="SVGID_7_" points="372.3,1836.1 464.4,1836.1 464.4,1847 372.3,1847 372.3,1836.1 					"/>
				</defs>
				<clipPath id="SVGID_8_">
					<use xlink:href="#SVGID_7_"  style="overflow:visible;"/>
				</clipPath>
				<g id="layer1_2_" transform="translate(-46.019458,-272.45092)" class="st19">
					<g id="g3025_2_" transform="matrix(4.3163477,0,0,-4.3163477,-1197.3265,7114.0577)">
						<g id="g3027_2_">
							<g id="g3033_2_" transform="translate(0,869.563)">
								<defs>
									<polygon id="SVGID_9_" points="242.7,266.6 594,266.6 594,1012.1 242.7,1012.1 242.7,266.6 									"/>
								</defs>
								<clipPath id="SVGID_10_">
									<use xlink:href="#SVGID_9_"  style="overflow:visible;"/>
								</clipPath>
								<g id="g3035_2_" class="st20">
									<g id="g3037_2_">
										<g id="g3043_2_">
											<defs>
												<polygon id="SVGID_11_" points="372.3,977.4 464.4,977.4 464.4,966.5 372.3,966.5 372.3,977.4 												"/>
											</defs>
											<clipPath id="SVGID_12_">
												<use xlink:href="#SVGID_11_"  style="overflow:visible;"/>
											</clipPath>
											<g id="g3045_2_" class="st21">
												<path id="path3051_2_" class="st3" d="M454.8,969.7c-0.4-0.3-1.2-1-1.6-1.4c-0.3,0.3-1,0.8-1.4,1.1v0
													c0.1,0,0.2,0.2,0.2,0.4v3c-0.3,0.2-0.9,0.6-1.2,0.8l-0.4-0.4v-3.6l0.6-0.4c0,0-0.8-0.7-1.1-1c-0.3,0.3-0.8,0.6-1.2,0.9
													v0c0.1,0,0.2,0.2,0.2,0.4v3.2c-0.3,0.2-0.8,0.5-1.1,0.7l-0.4-0.3v-3.6l0.5-0.4c0,0-0.7-0.6-1.1-0.9
													c-0.3,0.3-0.7,0.5-1.1,0.9v0c0.1,0.1,0.2,0.2,0.2,0.4v3.7l-0.4,0.3l-0.4-0.4l-0.2,0.2c0.3,0.3,1,0.9,1.5,1.3l1-0.9v-0.3
													l1.4,1.2c0.4-0.3,1.7-1.1,1.7-1.1l1.3,1.1c0.4-0.3,1.4-0.9,2-1.2v0c-0.2-0.1-0.2-0.3-0.2-0.4v-3.3l0.5-0.4l0.4,0.4
													L454.8,969.7L454.8,969.7z M444.8,976c-0.4-0.5-0.7-0.7-1.2-0.7c-0.4,0-0.6,0.1-0.9,0.5l-0.4-0.4l-0.2,0.2l1.5,1.3
													C443.9,976.1,444.4,976,444.8,976L444.8,976"/>
												<path id="path3053_2_" class="st3" d="M445.1,969.7c-0.4-0.3-1.1-1-1.5-1.3c-0.3,0.3-0.9,0.7-1.3,1v0
													c0.1,0.1,0.2,0.2,0.2,0.4v3.5l-0.4,0.3l-0.5-0.4l-0.2,0.2c0.3,0.3,1,0.9,1.5,1.3l1.2-1v0c-0.2,0-0.2-0.1-0.2-0.5v-3.4
													l0.5-0.3l0.4,0.4L445.1,969.7L445.1,969.7z M420.5,969.7c-0.4-0.3-1.2-1-1.5-1.3c-0.3,0.3-0.9,0.7-1.3,1v0
													c0.1,0.1,0.2,0.2,0.2,0.4v5.7l-0.4,0.3l-0.4-0.4l-0.2,0.2c0.3,0.3,1,0.9,1.4,1.3l1.3-1v-0.1c-0.1,0-0.2-0.1-0.2-0.5
													v-5.6l0.5-0.4l0.4,0.4L420.5,969.7z M406.6,969.6c-0.3-0.3-1.2-1-1.5-1.3c-0.3,0.3-0.9,0.8-1.3,1v0.1
													c0.1,0,0.2,0.1,0.2,0.4v3c-0.3,0.2-0.9,0.6-1.2,0.8c-0.1-0.1-0.4-0.3-0.4-0.3v-3.7l0.5-0.4c0,0-0.7-0.6-1.1-0.9
													c-0.3,0.3-0.7,0.5-1.1,0.9v0c0.1,0.1,0.2,0.2,0.2,0.4v3.7l-0.4,0.3l-0.4-0.3l-0.2,0.2c0.3,0.3,1,0.8,1.5,1.3l1-0.9v-0.3
													l1.4,1.2c0.4-0.3,1.4-0.9,2-1.3v0l-0.3-0.4v-3.3l0.5-0.4l0.4,0.4L406.6,969.6L406.6,969.6z M462.6,969.2v1.8
													c-0.2,0.1-0.5,0.2-0.7,0.3l-1.7-1.7l0.1,0c0.3,0.1,0.4,0.3,0.9,0.3C461.8,969.9,462.3,969.5,462.6,969.2L462.6,969.2
													L462.6,969.2z M464.3,974.6c0-0.6-0.7-1.4-1.6-1.4c-0.6,0-1,0.3-1.2,0.7l0,0v-1.5l0.8-0.4l0.4,0.4
													c0.4-0.2,1.2-0.7,1.6-0.8v0c0,0-0.2-0.1-0.2-0.3v-1c0-0.1,0.2-0.3,0.2-0.3v0c-0.9-0.4-2.2-1.1-2.8-1.6
													c-0.3,0.3-0.7,0.6-1.3,0.6c-0.5,0-0.7-0.2-0.7-0.4c0-0.1,0.2-0.1,0.2-0.2c0-0.1-0.1-0.1-0.2-0.1c-0.1,0-0.3,0.2-0.3,0.4
													c0,0.4,0.3,0.7,0.9,1.4l1.1,1.2c-0.5,0.2-1.2,0.5-1.5,0.7v0c0,0,0.3,0.1,0.2,0.3v0.9c0,0.1-0.2,0.3-0.2,0.3v0
													c0.9,0.3,2.1,1,2.8,1.5c0.2-0.2,0.6-0.5,1-0.5c0.4,0,0.4,0.2,0.4,0.3c0,0.1-0.1,0.1-0.1,0.2c0,0.1,0,0.1,0.1,0.1
													C464.1,974.9,464.3,974.8,464.3,974.6"/>
											</g>
										</g>
										<path id="path3055_2_" class="st3" d="M457.8,972.3c-0.3,0.4-0.9,1.1-1.2,1.6l0,0v-2.4L457.8,972.3z M459.1,972.8
											l-2.6-1.6v-1.1c0.3-0.1,1-0.4,1.4-0.7l0.6,0.6c0.2,0.2,0.1,0.4,0.4,0.4c0.1,0,0.2-0.1,0.2-0.2c0-0.1-0.1-0.1-0.1-0.2
											l-1.7-1.6c-0.6,0.4-1.8,0.9-2.3,1.1v0c0.1,0,0.2,0.1,0.2,0.3v3.1c0,0.3-0.1,0.3-0.2,0.4v0c0.9,0.3,2.2,1,2.8,1.4
											C458.1,974.1,458.7,973.3,459.1,972.8L459.1,972.8z M440,969.5v5.6c-0.1,0-0.2,0-0.3,0c-0.4,0-1.1,0.1-1.5,0.3
											c-1.3-0.2-2.8-1.3-2.8-3.3c0-1.7,1.3-2.8,3.1-2.8C439.1,969.2,439.7,969.3,440,969.5L440,969.5z M441.7,976.6
											c0-0.9-0.6-1.3-1.3-1.5v-5.5c0.9,0.5,1,1,1,1.2c0,0.1-0.1,0.1-0.1,0.2c0,0.1,0.1,0.1,0.2,0.1c0.1,0,0.1-0.1,0.1-0.3
											c0-1.3-1.3-3-3.9-3c-2,0-3.7,1.5-3.7,3.5c0,2.8,2.4,3.8,4.1,3.9c-0.6,0.1-1.6,0.3-2.4,0.3c-1,0-1.7-0.6-1.7-1
											c0-0.2,0.2-0.2,0.2-0.4c0-0.1,0-0.2-0.1-0.2c-0.2,0-0.3,0.2-0.3,0.3c0,1.1,0.8,2.6,2.5,2.6c1.7,0,2.9-0.6,4.2-0.6
											c0.9,0,1.1,0.3,1.1,0.8l0.2-0.1C441.6,977.2,441.7,976.9,441.7,976.6z M428.6,969.2v1.8c-0.2,0.1-0.5,0.2-0.7,0.3
											l-1.7-1.7l0.1,0c0.3,0.1,0.4,0.3,0.9,0.3C427.8,969.9,428.3,969.5,428.6,969.2L428.6,969.2z M430.3,974.6
											c0-0.6-0.7-1.4-1.6-1.4c-0.6,0-1,0.3-1.2,0.7l0,0v-1.5l0.8-0.4l0.4,0.4c0.4-0.2,1.2-0.7,1.7-0.9v0c0,0-0.2-0.1-0.2-0.3v-1
											c0-0.1,0.2-0.3,0.2-0.3v0c-0.9-0.4-2.2-1.1-2.8-1.6c-0.3,0.3-0.7,0.6-1.3,0.6c-0.5,0-0.7-0.2-0.7-0.4
											c0-0.1,0.2-0.1,0.2-0.2c0-0.1-0.1-0.1-0.2-0.1c-0.1,0-0.3,0.2-0.3,0.4c0,0.4,0.3,0.7,0.9,1.4l1.1,1.2
											c-0.5,0.2-1.2,0.5-1.5,0.7v0c0,0,0.2,0.1,0.2,0.3v0.9c0,0.1-0.2,0.3-0.2,0.3v0c0.9,0.3,2.1,1,2.8,1.5
											c0.2-0.2,0.6-0.5,1-0.5c0.4,0,0.4,0.2,0.4,0.3c0,0.1-0.1,0.1-0.1,0.2c0,0.1,0,0.1,0.1,0.1
											C430.2,974.9,430.4,974.8,430.3,974.6"/>
										<path id="path3057_2_" class="st3" d="M423.8,972.3c-0.3,0.4-0.9,1.1-1.2,1.6l0,0v-2.4L423.8,972.3z M425.2,972.8
											l-2.6-1.6v-1.1c0.3-0.1,1-0.4,1.4-0.7l0.6,0.6c0.2,0.2,0.1,0.4,0.4,0.4c0.1,0,0.2-0.1,0.2-0.2c0-0.1-0.1-0.1-0.1-0.2
											l-1.7-1.6c-0.6,0.4-1.8,0.9-2.3,1.1v0c0.1,0,0.2,0.1,0.2,0.3v3.1c0,0.3-0.1,0.3-0.2,0.4v0c0.9,0.3,2.2,1,2.8,1.4
											C424.2,974.1,424.8,973.3,425.2,972.8L425.2,972.8z M415.9,972.3c-0.3,0.4-0.9,1.1-1.2,1.6l0,0v-2.4L415.9,972.3z
											 M417.3,972.8l-2.6-1.6v-1.1c0.3-0.1,1-0.4,1.4-0.7l0.6,0.6c0.2,0.2,0.1,0.4,0.4,0.4c0.1,0,0.2-0.1,0.2-0.2
											c0-0.1-0.1-0.1-0.1-0.2l-1.7-1.6c-0.6,0.4-1.8,0.9-2.3,1.1v0c0,0,0.1,0.1,0.1,0.3v3.1c0,0.3-0.1,0.4-0.1,0.4v0
											c0.9,0.3,2.2,1,2.8,1.4C416.3,974.1,416.9,973.3,417.3,972.8L417.3,972.8z M410.3,969.4v3.4c-0.4,0.2-1.2,0.7-1.6,1.1l0,0
											v-3.8c0.4-0.2,1.2-0.6,1.5-0.8L410.3,969.4L410.3,969.4z M412.4,968.8c0-1.4-0.8-2.4-2.1-2.4c-1,0-1.8,0.5-2.8,0.5
											c-0.6,0-0.9-0.2-1-0.4l-0.1,0c0.1,1,0.8,1.6,1.7,1.6c1,0,1.8-0.6,2.9-0.6c0.7,0,1.1,0.4,1.1,0.7l0,0
											c-0.1-0.1-0.3-0.2-0.6-0.2c-0.6,0-1.2,0.4-1.3,1c-0.3-0.2-0.9-0.6-1.1-0.9c-0.7,0.4-1.7,0.9-2.3,1.2v0l0.2,0.3v3.1
											c0,0.2-0.1,0.3-0.2,0.4v0c1,0.3,2.2,1,2.8,1.5c0.6-0.4,1.6-1.1,2.2-1.4v-0.1c-0.1-0.1-0.2-0.1-0.2-0.4v-3.4
											c0-0.4,0-0.7,0.4-0.7C412.2,968.8,412.3,968.9,412.4,968.8L412.4,968.8L412.4,968.8z M397,971.9l-1.2,3.4l-1.3-3.4H397z
											 M400.4,969.7l-1.5-1.4c-0.4,0.3-0.8,0.5-1.3,0.9v0.1c0.1,0,0.2,0.2,0.2,0.3c0,0.1,0,0.1,0,0.2l-0.4,1.3h-3l-0.4-1.1
											c0.6,0,0.9-0.1,1.2-0.2l0.3,0.5l0.2-0.1l-1-1.9c-0.4,0.2-0.9,0.4-1.4,0.4c-0.6,0-1.1-0.2-1.3-0.4c0,0-0.1,0-0.1,0.1
											c0.2,0.8,0.8,1.5,1.8,1.5l2.1,5.7c-0.2,0.6-0.4,0.8-1,0.8c-0.5,0-1-0.2-1-0.8c0-0.3,0.3-0.2,0.3-0.4
											c0-0.1-0.1-0.1-0.2-0.1c-0.2,0-0.4,0.2-0.4,0.7c0,1,0.9,1.6,1.8,1.6c0.8,0,1.1-0.3,1.4-0.6c0.1,0.3,0.4,0.5,0.6,0.5
											l0.1-0.1c-0.1-0.2-0.2-0.3-0.2-0.6c0-0.1,0.1-0.4,0.1-0.5l2.3-6.4l0.4-0.2l0.4,0.4L400.4,969.7L400.4,969.7z M387.8,969.2
											v1.8c-0.2,0.1-0.5,0.2-0.7,0.3l-1.7-1.7l0.1,0c0.3,0.1,0.4,0.3,0.9,0.3C386.9,969.9,387.5,969.5,387.8,969.2L387.8,969.2z
											 M389.4,974.6c0-0.6-0.7-1.3-1.6-1.3c-0.6,0-0.9,0.3-1.2,0.7l0,0v-1.5l0.8-0.4l0.4,0.4c0.4-0.2,1.2-0.7,1.6-0.8v0
											c0,0-0.2-0.1-0.2-0.3v-1c0-0.1,0.2-0.3,0.2-0.3v0c-0.9-0.4-2.2-1.1-2.8-1.6c-0.3,0.3-0.7,0.6-1.3,0.6
											c-0.5,0-0.7-0.2-0.7-0.4c0-0.1,0.2-0.1,0.2-0.2c0-0.1-0.1-0.1-0.2-0.1c-0.1,0-0.3,0.2-0.3,0.4c0,0.4,0.3,0.7,0.9,1.4
											l1.1,1.2c-0.5,0.2-1.2,0.5-1.5,0.7l0.1,0c0,0,0.1,0.1,0.1,0.3v0.9c0,0.1-0.1,0.3-0.1,0.3v0.1c0.9,0.3,2.1,1,2.8,1.4
											c0.2-0.2,0.5-0.5,1-0.5c0.4,0,0.4,0.2,0.4,0.3c0,0.1-0.1,0.1-0.1,0.2c0,0.1,0,0.1,0.1,0.1
											C389.2,974.9,389.4,974.8,389.4,974.6L389.4,974.6z M382.5,969.2v3.6c-0.5,0.3-1.3,0.8-1.6,1.1l0,0v-3.7
											C381.3,970,382,969.5,382.5,969.2L382.5,969.2z M384.1,969.9c-0.8-0.3-2.2-1-2.8-1.6c-0.7,0.5-1.6,1.1-2.2,1.4v-0.1
											c0.2,0.1,0.2,0.2,0.2,0.4v3c0,0.3-0.1,0.4-0.2,0.4v-0.1c1,0.4,2,0.9,2.8,1.5c0.6-0.4,1.6-1,2.2-1.4v0
											c-0.1,0-0.2-0.2-0.2-0.4v-2.8C383.9,970.1,384,970,384.1,969.9L384.1,969.9z M376.1,970.3v5.1c-0.7,0.1-1.1,0.6-1.3,0.8
											l-0.7-0.6c0-0.8,0.2-1.4,0.5-2c0.3-0.6,0.5-1.3,0.5-1.8c0-0.8-0.5-1.4-1.6-2.4l0,0C374.2,969.9,375.2,970.3,376.1,970.3
											L376.1,970.3z M378.9,970.3l-1.1-2c-0.6,0.4-1.5,0.6-2.3,0.6c-1.6,0-2.6-0.3-3.2-0.6l-0.1,0.1c0.5,0.4,1.3,1.1,1.3,2.6
											c0,0.6-0.3,1.4-0.5,1.9c-0.2,0.6-0.4,0.8-0.4,1.6c0,1.4,0.8,2.1,1.9,2.7l0.1-0.1c-0.4-0.3-0.6-0.7-0.7-1.2l1.9,1.5
											c0.5-0.7,0.9-0.9,1.5-0.9c0.5,0,0.6,0.2,0.6,0.4c0,0.1-0.2,0.1-0.2,0.3c0,0.1,0.1,0.1,0.1,0.1c0.1,0,0.3-0.2,0.3-0.3
											c0-0.9-0.9-1.6-1.7-1.6c-0.1,0-0.2,0-0.3,0v-5.1c0.7,0,1.4-0.2,2-0.5l0.3,0.6L378.9,970.3L378.9,970.3z M439.6,974.6
											c0-0.1-0.1-0.1-0.1-0.1c-0.1,0-0.2,0.2-0.4,0.2c-0.4,0-0.7-0.3-0.7-0.7c0-1,1-1.4,1-2.6c0-1-1-1.5-2-1.7l-0.2,0.1
											c0.6,0.1,0.8,0.3,0.8,0.9c0,0.9-0.9,1.6-0.9,2.6c0,0.8,0.8,1.5,1.9,1.5c0.2,0,0.4-0.1,0.5-0.1
											C439.5,974.7,439.6,974.7,439.6,974.6"/>
									</g>
								</g>
							</g>
						</g>
					</g>
				</g>
			</g>
		</g>
	</g>
</g>
</svg>
