<?xml version="1.0" encoding="utf-8"?>
<!-- Generator: Adobe Illustrator 22.0.1, SVG Export Plug-In . SVG Version: 6.00 Build 0)  -->
<svg version="1.1" id="Layer_1" xmlns="http://www.w3.org/2000/svg" xmlns:xlink="http://www.w3.org/1999/xlink" x="0px" y="0px"
	 viewBox="0 0 1123.3 656.6" style="enable-background:new 0 0 1123.3 656.6;" xml:space="preserve">
<style type="text/css">
	.st0{fill:none;stroke:#231F20;stroke-linecap:round;stroke-miterlimit:10;}
	.st1{fill:#FF1D25;}
	.st2{fill:none;stroke:#E72D00;stroke-width:2;stroke-linecap:round;stroke-miterlimit:10;}
	.st3{fill:#E72D00;}
	.st4{fill:none;stroke:#388C5E;stroke-width:2;stroke-linecap:round;stroke-miterlimit:10;}
	.st5{fill:#388C5E;}
	.st6{fill:none;}
	.st7{fill:#FFFFFF;}
	.st8{fill:none;stroke:#FF1D25;stroke-width:2;stroke-linecap:round;stroke-miterlimit:10;}
	.st9{fill:#E72D00;stroke:#E72D00;stroke-linecap:round;stroke-miterlimit:10;}
	.st10{fill:#388C5E;stroke:#388C5E;stroke-linecap:round;stroke-miterlimit:10;}
	.st11{clip-path:url(#SVGID_2_);}
	.st12{clip-path:url(#SVGID_4_);}
	.st13{clip-path:url(#SVGID_6_);}
	.st14{fill:#231F20;}
	.st15{font-family:'Roboto-MediumItalic';}
	.st16{font-size:15px;}
	.st17{font-size:14.3251px;}
	.st18{font-family:'Roboto-Regular';}
	.st19{font-size:15.4365px;}
	.st20{font-family:'Roboto-Medium';}
	.st21{font-size:17px;}
</style>
<rect x="275.7" y="25" class="st6" width="596" height="48"/>
<g>
	<g>
		<path class="st7" d="M331.8,90c0-24,0-47.9,0-71.9c161.8,0,323.6,0,485.4,0c0,24,0,47.9,0,71.9C655.4,90,493.6,90,331.8,90z
			 M800.8,42.1c-0.4,0.4-0.8,1-1.3,1.1c-5.3,1.4-5.2,5.4-4.8,9.6c0.1,0.6,0.4,1.3,0.8,1.7c1.3,1.3,2.7,2.5,3.9,3.7
			c1.6-1.6,3.2-3,5-4.7c-3.1-1.4-3.3-3.9-3.2-6.6C801.4,45.4,801,43.7,800.8,42.1c0.8,0.7,1.7,1.4,2.5,2.2c2.3,2.2,4.2,2.7,6.6,1.6
			c3.2-1.4,4.3-3,4.3-6.5c-3.6,2.5-4.5,2.4-8-0.3C804.4,40.2,802.6,41.2,800.8,42.1z M563.4,70.6c0-13,0-26,0-39
			c-0.1,1.9-0.1,3.9-0.1,5.8C563.3,48.5,563.3,59.6,563.4,70.6c2,0.4,4.1,0.8,6.1,1.1c5,0.6,7.9-1.8,8-6.8c0.1-11.2,0-22.4,0-33.6
			c0-0.6-0.2-1.3-0.6-1.7c-1.4-1.4-2.8-2.7-4.4-3.9c-0.4-0.3-1.4-0.4-1.9-0.1c-1.8,1.3-3.5,2.8-5.3,4.3c0.6,0.5,1,1,1.4,1.3
			c2.1,1.4,2.8,3.3,2.7,5.9c-0.3,4.6-0.5,9.2-0.5,13.9c0,4.9,0.3,9.8,0.4,14.7c0,2.9-1.5,4.5-4.4,4.8
			C564.4,70.4,563.9,70.5,563.4,70.6z M549.6,69.8c2.7-0.3,5.4-0.6,8.4-0.9c0-0.4,0-1.2,0-1.9c0-11.2,0-22.4,0-33.6
			c0-0.7,0-1.3-0.1-2c-0.5-3.8-2.3-5.8-5.5-6.3c-3.5-0.5-6.5,1.3-8,4.7c2.9-1.1,4.9-0.5,5.1,2c0.3,4.1,0.1,8.3,0.1,12.4
			c-4.6,1-6.8,2.8-7.1,5.7c-0.2,2,1,3.9,2.8,4.7c0-0.6-0.1-1.5,0.2-1.7c0.9-0.7,2-1.2,3.1-1.6c0.2-0.1,1,1,1,1.5
			C549.8,58.3,549.8,64.1,549.6,69.8c-4.2,1.7-6.1,4.6-5.4,8.4c0.7,4,3.6,6.4,7.9,6.4c1.8,0,3.6-0.1,5.3-0.4
			c4.2-0.6,8.4-1.4,12.6-1.9c2.3-0.2,3.3,1.4,2.6,3.7c-0.2,0.5-0.4,1-0.6,1.6c4.1-1.6,6.3-4.9,5.7-8.1c-0.7-3.4-4.1-5.6-8.3-5.3
			c-2.2,0.1-4.3,0.5-6.4,0.8c-3.8,0.5-7.7,1.2-11.5,1.6c-2,0.2-3.6-0.8-3.6-2.8C547.9,72.5,549,71.1,549.6,69.8z M440.8,34.6
			c0.2-0.1,0.4-0.2,0.6-0.2c6.8,12.4,13.6,24.8,20.5,37.2c0.3-0.1,0.6-0.2,0.9-0.3c0-12.6,0-25.1,0-37.6c6.1-1.6,8.7-5.1,7.8-9.3
			c-1.5,0.7-3,2.1-4.6,2.1c-1.7,0.1-3.4-1-5.4-1.7c-1.5,1.7-3.3,3.7-5.3,6c2.5,1.1,4.8,2.1,7.2,3.2c0,6.8,0,13.8,0,20.8
			c-2.7-4-5-8.2-7.3-12.3c-2.9-5.2-5.7-10.5-8.9-15.6c-2.6-4.1-8-4.2-10.6-0.5c-1.1,1.5-1.5,3.5-2.1,5.2c1.5-0.6,3-1.7,3.8-1.3
			c1.3,0.6,2.8,2.1,3.1,3.4c0.5,2.5,0.1,5.2,0.1,7.7c-5.3,1-7.2,2.4-7.6,5.7c-0.2,2.2,1.2,4.5,3.4,5.5c-0.1-3.2,1.1-4.2,4.1-3.4
			c0,3.8,0,7.5,0,11.3c-7.9,2.1-10.5,4.8-9.8,10c0.5,3,3.5,5.6,6.4,5.5c-2.5-2.1-3-3.8-1.6-5.7c0.6-0.7,1.7-1.5,2.4-1.4
			c2.1,0.3,4.1,1.1,6.6,1.8c1.3-1.5,3.1-3.4,5.2-5.8c-2.8-1.4-5.3-2.5-7.7-3.8c-0.5-0.3-1.1-1-1.1-1.6
			C440.8,51.1,440.8,42.9,440.8,34.6z M592,70.9c4.2-2.3,8.2-4.5,12.2-6.8c0.6-0.3,1.1-1.2,1.1-1.9c0.1-4.9,0.1-9.9,0-14.8
			c0-0.4-0.2-1-0.5-1.3c-2.2-2-4.5-3.9-6.8-5.9c-0.9-0.9-1.7-0.8-2.8-0.2c-3.2,1.8-6.6,3.5-9.8,5.4c-0.6,0.4-1.3,1.4-1.3,2.2
			c-0.1,5.1-0.1,10.3,0,15.5c0,0.7,0.3,1.5,0.7,1.9C587.2,66.9,589.7,68.9,592,70.9z M346.4,34.5c-0.7,0.3-1.4,0.6-2,0.9
			c-6.4,3.6-10.6,8.8-10.9,16.4c-0.3,7.4,2.5,13.5,9.1,17.3c5.9,3.4,12.1,3.6,18.1,0.1c5.3-3.1,7.6-8,8.3-14.3
			c-1.3,1.7-2.2,3.3-3.4,4.6c-7,7.9-18.3,7.3-23.4-2.7C338.8,50.2,340,40.3,346.4,34.5z M706,55.8c-0.5,0.6-0.9,1.3-1.4,1.9
			c-2,2.8-4.5,5-7.7,6.2c-9.6,3.6-17.7-3.4-18.9-13.1c-0.8-6.1,1.3-11.4,6-16.2c-1.1,0.4-1.6,0.5-2.1,0.8
			c-6.8,3.7-11.9,11.2-10.6,20c1.8,12.9,15.4,20,26.8,13.8C703.3,66.4,705.8,61.8,706,55.8z M384,65.4c-2.8-1.1-2.6-3.4-2.6-5.6
			c0-11.2,0-22.3,0-33.5c0-0.8-0.1-1.5-0.1-2.7c-3.1,2.4-5.8,4.4-8.1,6.2c0.3,1.7,0.8,3.1,0.8,4.5c0.1,9,0,18.1,0.1,27.1
			c0,1.8-0.1,3.3-2,4c1.5,1.4,2.8,2.9,4.3,4c0.5,0.4,1.7,0.4,2.2,0.1C380.4,68.4,382,67,384,65.4z M641.3,22.9
			c-3.3,2.3-6.1,4.3-8.3,5.8c0.5,2.6,1.3,4.6,1.3,6.7c0.1,8.8,0.1,17.5,0,26.3c0,1.4-0.6,2.8-0.9,4.6c1.4,1.3,3.2,3,5,4.7
			c2.1-1.8,3.9-3.5,6-5.3c-3.4-1.8-3.2-4.7-3.1-7.7c0.1-10.7,0-21.4,0-32.1C641.3,25,641.3,24.2,641.3,22.9z M700.6,20.9
			c1.7,1.2,2.9,2.3,2,4.1c-0.9,1.7-2.5,1.7-4.1,1.5c-0.7-0.1-1.5-0.3-2.2-0.5c-4.1-1.2-8.2-2.4-12.3-3.5c-3.7-0.9-7,0.2-9.5,3.1
			c-2.8,3.2-2.4,7.8,0.8,9.8c-0.3-4,1.5-5.7,5.5-5c0.7,0.1,1.4,0.4,2.2,0.5c5.1,1.3,10.1,2.7,15.2,3.7c4.2,0.9,8.2-2,8.9-6.2
			C707.8,24.6,705.5,21.8,700.6,20.9z M362.9,20.9c1.7,1.2,3,2.3,2.1,4.1c-0.9,1.8-2.6,1.7-4.3,1.5c-0.6-0.1-1.2-0.2-1.7-0.4
			c-4.1-1.2-8.2-2.3-12.3-3.5c-2.8-0.8-5.3-0.3-7.7,1.2c-4.7,2.9-5,9.5-1.3,11.6c0.1-4.5,1.9-5.9,6.4-4.8c0.5,0.1,1,0.3,1.5,0.4
			c5.1,1.2,10.1,2.7,15.2,3.7c4.2,0.8,8.1-2.1,8.7-6.1C370.1,24.5,367.9,21.9,362.9,20.9z M421,49.5c-2-3.5-3.9-6.8-5.8-10.1
			c-4.2,2.4-8.3,4.7-12.4,7c-0.5,0.3-0.8,1.2-0.8,1.8c-0.1,4.9-0.1,9.7,0,14.6c0,0.6,0.2,1.3,0.6,1.7c2.3,2.1,4.6,4.2,7.1,6.4
			c1.9-1.5,3.7-2.9,5.5-4.4c-1-1-1.6-2-2.5-2.6c-3.1-2-3.9-4.8-3.6-8.4c0.3-4,0.1-8,0.1-11.9c0.2-0.1,0.4-0.1,0.7-0.2
			c2,3.3,3.9,6.6,5.9,10C417.4,52.2,419.1,50.9,421,49.5z M784.3,66.6c-1.1-1.1-1.9-2.3-2.9-3c-2.4-1.7-3.4-3.8-3.2-6.8
			c0.3-4.4,0.1-8.9,0.1-13.3c0.2-0.1,0.4-0.1,0.6-0.2c2,3.3,4,6.7,6,10.1c1.7-1.3,3.4-2.5,5.4-3.9c-2-3.4-3.9-6.8-5.9-10.1
			c-4.2,2.4-8.1,4.5-11.9,6.8c-0.6,0.4-1.2,1.3-1.2,2c-0.1,4.9-0.1,9.9,0,14.8c0,0.5,0.1,1.1,0.4,1.4c2.4,2.2,4.9,4.4,7.3,6.5
			C780.7,69.4,782.5,68.1,784.3,66.6z M613,65.5c1.5,1.4,3.3,3,5.1,4.6c0.3,0.3,1.2,0.4,1.5,0.2c1.6-1.2,3-2.5,4.9-4.1
			c-3.1-1.4-3.8-3.6-3.6-6.5c0.2-3.3,0.1-6.7,0.1-10.1c0-1.4,0-2.9,0-4.9c2.5,2,4.5,3.7,7.2,2c2.3-1.5,3.5-3.7,3.6-6
			c-1.7-0.1-3.4,0.1-4.8-0.4c-1.2-0.4-1.8-0.2-2.4,0.6c-1.1,1.4-2.3,2.7-3.5,4.2c-1.9-2.2-3.3-3.9-4.8-5.7c-1.8,1.7-3.7,3.3-5.5,5
			c2.3,2.1,3.2,4.4,3,7.4c-0.2,3.4,0,6.9-0.1,10.3C613.6,63.2,613.3,64.2,613,65.5z M495.4,33.2c-6.5,1.9-8,7.6-3.3,11.9
			c1.9,1.7,2.6,3.7,2.6,6.1c-0.1,4.3,0,8.7,0,13c0,0.7,0.2,1.6,0.6,2c1.9,1.7,3.9,3.2,5.9,4.9c1.8-1.5,3.5-2.8,5.4-4.3
			c-1-0.9-1.8-1.7-2.8-2.3c-1.6-1-2.3-2.3-2.2-4.3c0.2-3.3-0.2-6.6,0.1-9.9c0.4-4.7-0.6-8.3-5.1-10.9
			C493.8,38,493.8,36.3,495.4,33.2z M382,77.6c7,0.9,12.8-4.2,13-11.2c0.2-6.6,0.1-13.1,0.1-19.7c0-0.5,0-1.1-0.3-1.5
			c-1.8-2.1-3.8-4.2-5.7-6.2c-1.8,1.6-3.4,3-5.1,4.4c0.9,1.1,1.7,2,2.4,3.1c0.6,0.8,1.4,1.8,1.4,2.7c0.1,6.2,0.1,12.4,0,18.6
			C387.7,71.9,386.5,75.7,382,77.6z M505.5,44.6c2.5,1.3,2.4,3.4,2.4,5.6c-0.1,4.6,0,9.3,0,13.9c0,0.6,0.1,1.4,0.5,1.7
			c1.9,1.6,3.9,3.2,6,4.7c0.4,0.3,1.2,0.4,1.5,0.2c1.6-0.9,3.1-1.9,4.8-3c-1.5-1.3-2.7-2.4-4-3.3c-1.4-1-1.8-2.1-1.7-3.8
			c0.1-3.1,0-6.3,0-9.4c0-2.6-0.5-5.3,2.1-7c-5.2-5.4-5.2-5.4-10.4-0.7C506.5,43.8,506.1,44.1,505.5,44.6z M751,44
			c0.6,0.6,1.1,1.2,1.6,1.7c2.1,1.8,3.1,4,2.8,6.9c-0.3,2.7,0,5.4-0.1,8.1c-0.1,1.4-0.4,2.8-0.6,4.5c1.6,1.7,3.4,3.6,5.2,5.5
			c2-1.8,3.8-3.5,5.8-5.3c-3-2-3.6-4.8-3.3-8c0.2-3.4,0.1-6.9,0-10.3c0-0.6,0.1-1.3-0.2-1.7c-1.7-2-3.6-3.9-5.5-5.9
			C754.7,41,752.8,42.5,751,44z M722.9,66c-3.2-2-3.9-4.9-3.6-8.2c0.2-3.6,0.1-7.2,0-10.7c0-0.5-0.1-1.2-0.4-1.5
			c-1.7-2-3.4-3.9-5.2-6c-1.7,1.5-3.4,2.9-5.1,4.4c0.5,0.6,0.8,1.2,1.2,1.6c1.9,1.6,2.4,3.6,2.3,6c-0.2,3.9-0.1,7.8,0,11.6
			c0,0.6,0,1.3,0.3,1.7c1.7,2,3.4,3.9,5.2,5.9C719.4,69.2,721,67.7,722.9,66z M737.6,44.1c4.6,2.9,5,7.3,4.6,11.9
			c-0.1,1.2,0.1,2.4,0,3.6c-0.2,1.8-0.5,3.7-0.8,6.1c1.2,1.3,2.7,3,4,4.4c2-1.8,3.8-3.4,5-4.5c-0.4-2.1-1-3.6-1.1-5.2
			c-0.2-4.6-0.1-9.1-0.2-13.7c0-0.5,0-1.2-0.2-1.5c-1.8-1.9-3.6-3.7-5.6-5.6C741.6,41.1,739.8,42.4,737.6,44.1z M725.3,44.1
			c0.7,0.8,1.1,1.5,1.7,2c1.8,1.5,2.4,3.4,2.3,5.8c-0.2,2.8,0.1,5.7-0.1,8.5c-0.1,1.5-0.6,3-1,5c1.2,1.4,3,3.3,4.4,4.9
			c1.9-1.8,3.8-3.5,5.7-5.3c-2.1-1.3-2.1-3.4-2.1-5.5c0.1-4.2,0-8.4,0-12.6c0-0.6,0-1.3-0.3-1.7c-1.7-1.8-3.6-3.6-5.6-5.5
			C728.8,41.1,727.1,42.5,725.3,44.1z M808.2,66.5c-0.2,0-0.4,0.1-0.6,0.1c-0.6-0.8-1.1-1.6-1.7-2.3c-3.1-3.6-9-3.4-11.8,0.4
			c-1.8,2.4-0.4,6.5,2.2,7.7c0.2-1,0.1-2.8,0.6-3.1c1.2-0.5,3.3-0.8,4-0.2c2.2,2,3.6,1,5.3-0.4c0.5-0.4,1.1-0.7,1.7-1.1
			c2.3-1.5,5.4-2.5,6.5-4.7c1.1-2.2,0.3-5.4,0.3-8.2c0-0.1,0-0.3,0-0.4c-0.3-0.6-0.4-1.3-0.8-1.7c-1.4-1.3-3-2.5-4.5-3.7
			c-1.6,1.5-3.1,2.9-4.5,4.2c1.1,1.3,2.8,2.4,3,3.8C808.5,60.1,808.2,63.3,808.2,66.5z M482.3,66.9c-1.6-1.8-3.2-3.5-4.7-5.3
			c-0.5-0.6-1.1-1.3-1.1-2c-0.1-2.9-0.1-5.7-0.1-8.6c0-2.5,0-5,0-7.9c-2.1,1.1-3.9,1.9-5.6,3c-0.7,0.5-1.4,1.6-1.4,2.4
			c-0.1,4.9-0.1,9.7-0.1,14.6c0,0.5,0.1,1.1,0.4,1.4c2.4,2.2,4.8,4.3,7.3,6.5C479.1,69.4,480.9,68,482.3,66.9z M519.5,44.9
			c2.6,1.2,2.4,3.4,2.4,5.5c0,5.4,0,10.8,0,16.7c2.1-1.3,4-2.3,5.7-3.5c0.6-0.5,1.2-1.5,1.2-2.3c0.1-3.3,0.1-6.6,0-9.8
			c-0.1-2.9-0.4-5.8,3-7.1c-2.2-1.7-4.1-3.3-6.2-5C523.7,41.1,521.7,42.9,519.5,44.9z M659.6,65.6c-2.3-3.4-4.4-6.7-6.5-9.9
			c-2.2-3.2-4.3-6.5-6.6-9.9c-0.5,0.7-0.8,1.1-1.1,1.5c-3.1,3.1-3.2,5.9-0.4,9.6c3.3,4.3,5.9,9.1,8.8,13.8
			C655.8,69,657.6,67.4,659.6,65.6z M347.1,58.4c2.8-1.4,5.8-2.3,7.6-4.2c1.1-1.1,0.3-4,0.3-6.1c0-1.8,0-3.6,0-5.4
			c0-2.1,0-4.2,0-6.7c-2.6,1.2-4.9,2.1-7.1,3.2c-0.4,0.2-0.8,0.9-0.8,1.3C347.1,46.3,347.1,52.1,347.1,58.4z M692.6,36
			c-2.6,1.2-4.8,2.1-7,3.1c-0.4,0.2-0.8,0.7-0.8,1.1c-0.1,5.9,0,11.7,0,18c2.6-1.3,4.8-2.3,7-3.5c0.4-0.2,0.7-0.8,0.8-1.2
			C692.6,47.8,692.6,42.2,692.6,36z M482.6,39.3c-2,1.2-3.9,2.3-5.7,3.4c2.1,3.6,4.2,7.1,6.3,10.7c1.9-1.4,3.6-2.7,5.3-4
			C486.4,46,484.6,42.7,482.6,39.3z M647.3,44.6c2.4,1.6,4.8,3.1,7.7,1.7c2.6-1.2,3.8-3.5,4.3-6.7c-3,1.9-5.6,1.6-8.1-0.6
			C649.8,40.9,648.6,42.6,647.3,44.6z M715,37.4c1.8-1.7,3.5-3.2,5.3-4.8c-1.5-1.7-2.9-3.2-4.3-4.8c-1.9,1.8-3.5,3.3-5.3,4.9
			C712.3,34.3,713.6,35.8,715,37.4z M357.4,47.2c1.5,1.2,2.8,2.2,4.1,3.3c1.4-1.1,2.7-2.2,4.1-3.3c-1.5-1.2-2.8-2.3-4.1-3.3
			C360.1,45,358.9,46,357.4,47.2z M703.2,47.2c-1.5-1.2-2.7-2.3-4.1-3.4c-1.4,1.2-2.6,2.2-4.1,3.4c1.5,1.2,2.8,2.3,4.1,3.3
			C700.6,49.4,701.8,48.3,703.2,47.2z"/>
		<path d="M440.8,34.6c0,8.2,0,16.5,0,24.7c0,0.5,0.6,1.3,1.1,1.6c2.5,1.3,5,2.5,7.7,3.8c-2.2,2.4-3.9,4.3-5.2,5.8
			c-2.5-0.7-4.5-1.5-6.6-1.8c-0.7-0.1-1.8,0.7-2.4,1.4c-1.5,1.8-0.9,3.6,1.6,5.7c-2.9,0.1-5.9-2.5-6.4-5.5c-0.8-5.1,1.9-7.9,9.8-10
			c0-3.7,0-7.5,0-11.3c-3-0.8-4.2,0.2-4.1,3.4c-2.2-1-3.6-3.3-3.4-5.5c0.4-3.2,2.2-4.7,7.6-5.7c0-2.5,0.3-5.2-0.1-7.7
			c-0.3-1.3-1.8-2.8-3.1-3.4c-0.8-0.4-2.3,0.7-3.8,1.3c0.6-1.6,1-3.6,2.1-5.2c2.6-3.7,8-3.5,10.6,0.5c3.2,5,6,10.3,8.9,15.6
			c2.3,4.1,4.6,8.3,7.3,12.3c0-7,0-14.1,0-20.8c-2.4-1.1-4.7-2.1-7.2-3.2c2-2.3,3.7-4.3,5.3-6c2,0.7,3.7,1.8,5.4,1.7
			c1.6-0.1,3.1-1.4,4.6-2.1c1,4.3-1.6,7.7-7.8,9.3c0,12.5,0,25,0,37.6c-0.3,0.1-0.6,0.2-0.9,0.3c-6.8-12.4-13.6-24.8-20.5-37.2
			C441.2,34.5,441,34.6,440.8,34.6z"/>
		<path d="M549.7,69.8c0-5.8,0.1-11.5,0.1-17.3c0-0.5-0.9-1.6-1-1.5c-1.1,0.4-2.2,0.9-3.1,1.6c-0.3,0.2-0.1,1.1-0.2,1.7
			c-1.9-0.8-3-2.7-2.8-4.7c0.3-2.9,2.4-4.6,7.1-5.7c0-4.1,0.2-8.3-0.1-12.4c-0.2-2.5-2.2-3.1-5.1-2c1.5-3.4,4.5-5.2,8-4.7
			c3.2,0.5,5.1,2.5,5.5,6.3c0.1,0.7,0.1,1.3,0.1,2c0,11.2,0,22.4,0,33.6c0,0.7,0,1.5,0,1.9C555.1,69.2,552.4,69.5,549.7,69.8
			L549.7,69.8z"/>
		<path d="M592,70.9c-2.3-2-4.8-4-7.1-6c-0.5-0.4-0.7-1.3-0.7-1.9c-0.1-5.2-0.1-10.3,0-15.5c0-0.7,0.6-1.8,1.3-2.2
			c3.2-1.9,6.5-3.5,9.8-5.4c1.1-0.6,1.8-0.6,2.8,0.2c2.2,2,4.5,3.9,6.8,5.9c0.3,0.3,0.5,0.9,0.5,1.3c0,4.9,0.1,9.9,0,14.8
			c0,0.6-0.5,1.6-1.1,1.9C600.2,66.4,596.1,68.6,592,70.9z M591.7,42.6c-0.2,0.6-0.4,0.8-0.4,1c0,5.6,0,11.2,0,16.8
			c0,0.4,0.1,1,0.3,1.2c2,1.9,4.1,3.7,6.6,6c0-6.5,0-12.3,0-18.1c0-0.4,0-0.8-0.3-1C595.9,46.5,593.9,44.6,591.7,42.6z"/>
		<path d="M563.4,70.6c0.5-0.1,1-0.2,1.5-0.2c2.9-0.3,4.5-1.9,4.4-4.8c-0.1-4.9-0.4-9.8-0.4-14.7c0-4.6,0.1-9.3,0.5-13.9
			c0.2-2.6-0.5-4.5-2.7-5.9c-0.5-0.3-0.9-0.8-1.4-1.3c1.8-1.5,3.5-3,5.3-4.3c0.4-0.3,1.4-0.2,1.9,0.1c1.5,1.2,3,2.5,4.4,3.9
			c0.4,0.4,0.6,1.1,0.6,1.7c0,11.2,0.1,22.4,0,33.6c0,5-2.9,7.5-8,6.8C567.5,71.5,565.4,71,563.4,70.6
			C563.4,70.6,563.4,70.6,563.4,70.6z"/>
		<path d="M346.4,34.5c-6.5,5.8-7.6,15.7-4.2,22.3c5.1,10,16.4,10.6,23.4,2.7c1.2-1.3,2.1-2.9,3.4-4.6c-0.7,6.2-3,11.2-8.3,14.3
			c-6,3.5-12.2,3.3-18.1-0.1c-6.6-3.8-9.4-9.9-9.1-17.3c0.3-7.5,4.5-12.7,10.9-16.4C345,35.1,345.7,34.8,346.4,34.5z"/>
		<path d="M706,55.8c-0.2,6-2.7,10.6-8,13.5c-11.4,6.2-25-0.9-26.8-13.8c-1.2-8.8,3.8-16.3,10.6-20c0.5-0.3,1.1-0.4,2.1-0.8
			c-4.7,4.8-6.8,10.1-6,16.2c1.3,9.7,9.3,16.7,18.9,13.1c3.2-1.2,5.7-3.4,7.7-6.2C705.1,57.1,705.6,56.4,706,55.8z"/>
		<path d="M384,65.4c-2,1.6-3.6,3-5.3,4.2c-0.5,0.3-1.7,0.3-2.2-0.1c-1.5-1.2-2.9-2.6-4.3-4c1.8-0.8,2-2.2,2-4
			c-0.1-9,0-18.1-0.1-27.1c0-1.4-0.5-2.8-0.8-4.5c2.3-1.8,5-3.8,8.1-6.2c0.1,1.2,0.1,1.9,0.1,2.7c0,11.2,0,22.3,0,33.5
			C381.4,62,381.2,64.3,384,65.4z"/>
		<path d="M641.3,22.9c0,1.3,0,2.1,0,2.9c0,10.7,0,21.4,0,32.1c0,3-0.2,5.9,3.1,7.7c-2.1,1.8-3.9,3.5-6,5.3c-1.8-1.7-3.6-3.3-5-4.7
			c0.4-1.8,0.9-3.2,0.9-4.6c0.1-8.8,0.1-17.5,0-26.3c0-2-0.8-4.1-1.3-6.7C635.2,27.1,638,25.2,641.3,22.9z"/>
		<path d="M700.6,20.9c4.9,0.9,7.2,3.7,6.5,7.6c-0.8,4.1-4.7,7.1-8.9,6.2c-5.1-1.1-10.1-2.5-15.2-3.7c-0.7-0.2-1.4-0.4-2.2-0.5
			c-3.9-0.7-5.8,1-5.5,5c-3.2-2-3.6-6.6-0.8-9.8c2.5-2.9,5.7-4,9.5-3.1c4.1,1,8.2,2.3,12.3,3.5c0.7,0.2,1.4,0.4,2.2,0.5
			c1.6,0.2,3.2,0.2,4.1-1.5C703.5,23.2,702.2,22.1,700.6,20.9z"/>
		<path d="M362.9,20.9c5.1,1,7.2,3.6,6.6,7.6c-0.6,4-4.5,7-8.7,6.1c-5.1-1-10.2-2.4-15.2-3.7c-0.5-0.1-1-0.3-1.5-0.4
			c-4.5-1.1-6.3,0.3-6.4,4.8c-3.7-2.1-3.3-8.7,1.3-11.6c2.4-1.5,4.9-2,7.7-1.2c4.1,1.2,8.2,2.3,12.3,3.5c0.6,0.2,1.2,0.3,1.7,0.4
			c1.7,0.2,3.4,0.3,4.3-1.5C365.9,23.2,364.6,22.1,362.9,20.9z"/>
		<path d="M549.6,69.8c-0.6,1.4-1.8,2.7-1.8,4.1c0,2,1.7,3,3.6,2.8c3.9-0.4,7.7-1.1,11.5-1.6c2.1-0.3,4.3-0.6,6.4-0.8
			c4.2-0.3,7.6,2,8.3,5.3c0.7,3.2-1.5,6.4-5.7,8.1c0.3-0.6,0.5-1.1,0.6-1.6c0.7-2.3-0.3-3.9-2.6-3.7c-4.2,0.4-8.4,1.3-12.6,1.9
			c-1.8,0.3-3.6,0.4-5.3,0.4c-4.3-0.1-7.2-2.4-7.9-6.4C543.6,74.4,545.5,71.5,549.6,69.8C549.7,69.8,549.6,69.8,549.6,69.8z"/>
		<path d="M421,49.5c-1.9,1.4-3.6,2.6-5.4,3.9c-2-3.4-4-6.7-5.9-10c-0.2,0.1-0.4,0.1-0.7,0.2c0,4,0.2,8-0.1,11.9
			c-0.2,3.5,0.6,6.3,3.6,8.4c0.9,0.6,1.6,1.6,2.5,2.6c-1.8,1.4-3.6,2.9-5.5,4.4c-2.4-2.2-4.8-4.2-7.1-6.4c-0.4-0.4-0.6-1.1-0.6-1.7
			c0-4.9-0.1-9.7,0-14.6c0-0.6,0.3-1.6,0.8-1.8c4-2.4,8.1-4.7,12.4-7C417.1,42.7,419,46,421,49.5z"/>
		<path d="M784.3,66.6c-1.8,1.4-3.6,2.8-5.4,4.3c-2.4-2.2-4.9-4.3-7.3-6.5c-0.3-0.3-0.4-0.9-0.4-1.4c0-4.9-0.1-9.9,0-14.8
			c0-0.7,0.6-1.6,1.2-2c3.8-2.3,7.8-4.4,11.9-6.8c1.9,3.3,3.9,6.7,5.9,10.1c-1.9,1.4-3.6,2.7-5.4,3.9c-2-3.4-4-6.8-6-10.1
			c-0.2,0.1-0.4,0.1-0.6,0.2c0,4.4,0.2,8.9-0.1,13.3c-0.2,3,0.9,5.1,3.2,6.8C782.4,64.4,783.2,65.5,784.3,66.6z"/>
		<path d="M613,65.5c0.2-1.3,0.5-2.3,0.6-3.4c0.1-3.4-0.2-6.9,0.1-10.3c0.2-3-0.7-5.4-3-7.4c1.9-1.7,3.7-3.3,5.5-5
			c1.5,1.8,2.9,3.4,4.8,5.7c1.3-1.5,2.4-2.8,3.5-4.2c0.7-0.8,1.2-1.1,2.4-0.6c1.4,0.5,3.1,0.3,4.8,0.4c-0.1,2.3-1.3,4.5-3.6,6
			c-2.7,1.8-4.8,0-7.2-2c0,2,0,3.5,0,4.9c0,3.4,0.2,6.7-0.1,10.1c-0.2,2.9,0.5,5.1,3.6,6.5c-1.8,1.6-3.3,2.9-4.9,4.1
			c-0.3,0.2-1.2,0.1-1.5-0.2C616.3,68.5,614.6,66.9,613,65.5z"/>
		<path d="M495.4,33.2c-1.6,3.1-1.6,4.8,1.2,6.3c4.5,2.5,5.5,6.1,5.1,10.9c-0.3,3.3,0.1,6.6-0.1,9.9c-0.1,2,0.6,3.3,2.2,4.3
			c0.9,0.6,1.7,1.4,2.8,2.3c-1.8,1.5-3.6,2.8-5.4,4.3c-2-1.6-4-3.2-5.9-4.9c-0.4-0.4-0.6-1.3-0.6-2c-0.1-4.3-0.1-8.7,0-13
			c0-2.5-0.7-4.4-2.6-6.1C487.4,40.7,488.9,35.1,495.4,33.2z"/>
		<path d="M382,77.6c4.5-2,5.8-5.7,5.9-9.9c0.2-6.2,0.1-12.4,0-18.6c0-0.9-0.8-1.8-1.4-2.7c-0.7-1-1.6-2-2.4-3.1
			c1.6-1.4,3.2-2.8,5.1-4.4c1.9,2.1,3.8,4.1,5.7,6.2c0.3,0.3,0.3,1,0.3,1.5c0,6.6,0.1,13.1-0.1,19.7C394.8,73.5,388.9,78.5,382,77.6
			z"/>
		<path d="M505.5,44.6c0.6-0.6,1-0.9,1.3-1.2c5.3-4.6,5.3-4.6,10.4,0.7c-2.7,1.7-2.2,4.4-2.1,7c0,3.1,0.1,6.3,0,9.4
			c-0.1,1.6,0.3,2.8,1.7,3.8c1.3,0.9,2.5,2.1,4,3.3c-1.7,1.1-3.2,2.1-4.8,3c-0.4,0.2-1.2,0.1-1.5-0.2c-2-1.5-4.1-3-6-4.7
			c-0.4-0.3-0.5-1.1-0.5-1.7c0-4.6-0.1-9.3,0-13.9C507.9,48,508,46,505.5,44.6z"/>
		<path d="M751,44c1.9-1.5,3.7-3,5.7-4.6c1.9,2,3.7,3.9,5.5,5.9c0.3,0.4,0.2,1.1,0.2,1.7c0,3.4,0.2,6.9,0,10.3c-0.2,3.3,0.4,6,3.3,8
			c-2,1.9-3.8,3.5-5.8,5.3c-1.8-1.9-3.6-3.9-5.2-5.5c0.3-1.7,0.6-3.1,0.6-4.5c0.1-2.7-0.2-5.4,0.1-8.1c0.3-2.9-0.7-5.1-2.8-6.9
			C752,45.2,751.6,44.6,751,44z"/>
		<path d="M722.9,66c-1.9,1.7-3.5,3.1-5.3,4.6c-1.8-2-3.6-3.9-5.2-5.9c-0.3-0.4-0.3-1.1-0.3-1.7c0-3.9-0.1-7.8,0-11.6
			c0.1-2.4-0.4-4.4-2.3-6c-0.4-0.4-0.7-0.9-1.2-1.6c1.7-1.5,3.4-3,5.1-4.4c1.8,2,3.5,4,5.2,6c0.3,0.4,0.4,1,0.4,1.5
			c0,3.6,0.2,7.2,0,10.7C719.1,61.2,719.7,64,722.9,66z"/>
		<path d="M737.6,44.1c2.2-1.7,4-3.1,5.8-4.5c1.9,1.9,3.8,3.7,5.6,5.6c0.3,0.3,0.2,1,0.2,1.5c0.1,4.6,0,9.1,0.2,13.7
			c0.1,1.6,0.6,3.1,1.1,5.2c-1.2,1.1-3,2.7-5,4.5c-1.3-1.4-2.9-3.1-4-4.4c0.3-2.4,0.6-4.2,0.8-6.1c0.1-1.2-0.1-2.4,0-3.6
			C742.6,51.4,742.3,47.1,737.6,44.1z"/>
		<path d="M725.3,44.1c1.8-1.6,3.5-3,5.1-4.3c2,1.9,3.8,3.7,5.6,5.5c0.3,0.3,0.3,1.1,0.3,1.7c0,4.2,0.1,8.4,0,12.6
			c0,2.2,0,4.2,2.1,5.5c-2,1.8-3.8,3.5-5.7,5.3c-1.4-1.6-3.2-3.5-4.4-4.9c0.4-2,1-3.5,1-5c0.1-2.8-0.1-5.7,0.1-8.5
			c0.2-2.4-0.5-4.2-2.3-5.8C726.4,45.6,725.9,44.9,725.3,44.1z"/>
		<path d="M808.2,66.5c0-3.2,0.3-6.4-0.1-9.5c-0.2-1.3-1.9-2.5-3-3.8c1.3-1.3,2.9-2.7,4.5-4.2c1.5,1.2,3.1,2.4,4.5,3.7
			c0.4,0.4,0.6,1.1,0.8,1.7c0.1,0.1,0,0.3,0,0.4c0,2.8,0.9,6-0.3,8.2c-1.1,2.1-4.3,3.1-6.5,4.7c-0.6,0.4-1.2,0.7-1.7,1.1
			c-1.7,1.4-3.2,2.4-5.3,0.4c-0.7-0.7-2.9-0.4-4,0.2c-0.6,0.3-0.5,2.1-0.6,3.1c-2.6-1.2-4-5.3-2.2-7.7c2.8-3.7,8.7-3.9,11.8-0.4
			c0.6,0.7,1.1,1.5,1.7,2.3C807.9,66.6,808,66.6,808.2,66.5z"/>
		<path d="M482.3,66.9c-1.4,1.1-3.2,2.5-5.1,4c-2.5-2.2-4.9-4.3-7.3-6.5c-0.3-0.3-0.4-0.9-0.4-1.4c0-4.9-0.1-9.7,0.1-14.6
			c0-0.8,0.7-1.9,1.4-2.4c1.6-1.1,3.5-1.9,5.6-3c0,2.8,0,5.4,0,7.9c0,2.9-0.1,5.7,0.1,8.6c0,0.7,0.6,1.5,1.1,2
			C479.2,63.4,480.7,65.1,482.3,66.9z"/>
		<path d="M519.5,44.9c2.2-2,4.1-3.8,6.2-5.7c2.1,1.7,4.1,3.3,6.2,5c-3.4,1.4-3.1,4.3-3,7.1c0.1,3.3,0.1,6.6,0,9.8
			c0,0.8-0.6,1.8-1.2,2.3c-1.7,1.2-3.6,2.3-5.7,3.5c0-5.8,0-11.3,0-16.7C521.9,48.2,522.1,46.1,519.5,44.9z"/>
		<path d="M659.6,65.6c-2,1.7-3.8,3.4-5.8,5.1c-3-4.7-5.6-9.5-8.8-13.8c-2.8-3.6-2.7-6.5,0.4-9.6c0.4-0.4,0.6-0.8,1.1-1.5
			c2.3,3.4,4.4,6.6,6.6,9.9C655.2,58.9,657.4,62.2,659.6,65.6z"/>
		<path d="M347.1,58.4c0-6.2,0-12,0-17.8c0-0.5,0.4-1.1,0.8-1.3c2.2-1.1,4.5-2,7.1-3.2c0,2.5,0,4.6,0,6.7c0,1.8,0,3.6,0,5.4
			c0,2.1,0.7,5-0.3,6.1C352.9,56.1,349.9,56.9,347.1,58.4z"/>
		<path d="M692.6,36c0,6.1,0,11.8,0,17.4c0,0.4-0.4,1-0.8,1.2c-2.2,1.2-4.5,2.2-7,3.5c0-6.2,0-12.1,0-18c0-0.4,0.5-0.9,0.8-1.1
			C687.8,38.1,690,37.2,692.6,36z"/>
		<path d="M800.8,42.1c0.2,1.6,0.5,3.2,0.5,4.8c-0.2,2.8,0,5.2,3.2,6.6c-1.8,1.7-3.3,3.2-5,4.7c-1.2-1.2-2.6-2.4-3.9-3.7
			c-0.4-0.4-0.7-1.1-0.8-1.7c-0.4-4.2-0.5-8.2,4.8-9.6C800,43.1,800.4,42.5,800.8,42.1C800.8,42.1,800.8,42.1,800.8,42.1z"/>
		<path d="M482.6,39.3c1.9,3.4,3.8,6.6,5.9,10.2c-1.7,1.3-3.4,2.5-5.3,4c-2.1-3.6-4.2-7.1-6.3-10.7
			C478.8,41.6,480.6,40.5,482.6,39.3z"/>
		<path d="M800.8,42.1c1.8-1,3.6-1.9,5.5-2.9c3.5,2.7,4.4,2.8,8,0.3c0,3.5-1.1,5.1-4.3,6.5c-2.5,1-4.4,0.6-6.6-1.6
			C802.5,43.5,801.6,42.9,800.8,42.1C800.8,42.1,800.8,42.1,800.8,42.1z"/>
		<path d="M647.3,44.6c1.3-1.9,2.5-3.7,3.9-5.6c2.5,2.2,5.1,2.5,8.1,0.6c-0.5,3.2-1.7,5.5-4.3,6.7C652.1,47.6,649.7,46.2,647.3,44.6
			z"/>
		<path d="M715,37.4c-1.4-1.6-2.7-3.1-4.2-4.7c1.7-1.6,3.4-3.2,5.3-4.9c1.4,1.6,2.7,3.1,4.3,4.8C718.6,34.1,716.8,35.7,715,37.4z"/>
		<path d="M357.4,47.2c1.5-1.2,2.7-2.2,4.1-3.3c1.3,1.1,2.6,2.1,4.1,3.3c-1.5,1.2-2.8,2.2-4.1,3.3C360.1,49.4,358.9,48.4,357.4,47.2
			z"/>
		<path d="M703.2,47.2c-1.4,1.1-2.6,2.2-4.1,3.3c-1.3-1-2.6-2.1-4.1-3.3c1.4-1.2,2.7-2.3,4.1-3.4C700.5,44.9,701.8,46,703.2,47.2z"
			/>
		<path d="M563.4,70.6c0-11.1-0.1-22.1-0.1-33.2c0-1.9,0-3.9,0.1-5.8C563.4,44.6,563.4,57.6,563.4,70.6
			C563.4,70.6,563.4,70.6,563.4,70.6z"/>
		<path class="st7" d="M591.7,42.6c2.2,2,4.3,3.9,6.3,5.8c0.2,0.2,0.3,0.7,0.3,1c0,5.8,0,11.6,0,18.1c-2.5-2.2-4.6-4.1-6.6-6
			c-0.3-0.3-0.3-0.8-0.3-1.2c0-5.6,0-11.2,0-16.8C591.3,43.4,591.4,43.2,591.7,42.6z"/>
	</g>
</g>
<g>
	<g>
		<g>
			<g>
				<defs>
					<polygon id="SVGID_1_" points="636.5,1415.9 728.6,1415.9 728.6,1426.8 636.5,1426.8 636.5,1415.9 					"/>
				</defs>
				<clipPath id="SVGID_2_">
					<use xlink:href="#SVGID_1_"  style="overflow:visible;"/>
				</clipPath>
				<g id="layer1_1_" transform="translate(-46.019458,-272.45092)" class="st11">
					<g id="g3025_1_" transform="matrix(4.3163477,0,0,-4.3163477,-1197.3265,7114.0577)">
						<g id="g3027_1_">
							<g id="g3033_1_" transform="translate(0,869.563)">
								<defs>
									<polygon id="SVGID_3_" points="506.8,-153.5 858.2,-153.5 858.2,592 506.8,592 506.8,-153.5 									"/>
								</defs>
								<clipPath id="SVGID_4_">
									<use xlink:href="#SVGID_3_"  style="overflow:visible;"/>
								</clipPath>
							</g>
						</g>
					</g>
				</g>
			</g>
		</g>
	</g>
</g>
<line class="st0" x1="213.2" y1="591.5" x2="934.2" y2="591.5"/>
<g>
	<line class="st1" x1="518.7" y1="287" x2="575.2" y2="287.5"/>
	<g>
		<line class="st2" x1="520.9" y1="287" x2="574.2" y2="287.5"/>
		<g>
			<polygon class="st3" points="524.9,290.4 521.5,287 525,283.7 522.1,283.6 518.7,287 522,290.4 			"/>
		</g>
		<g>
			
				<rect x="567.7" y="286.5" transform="matrix(8.850021e-03 -1 1 8.850021e-03 281.5947 859.0803)" class="st3" width="13" height="2"/>
		</g>
	</g>
</g>
<line class="st0" x1="573.2" y1="591.5" x2="574.2" y2="102.5"/>
<text transform="matrix(1 0 0 1 580.6567 290.8862)" class="st15 st16">Hispanic</text>
<g>
	<line class="st1" x1="646.7" y1="139" x2="574.2" y2="139.5"/>
	<g>
		<line class="st4" x1="644.4" y1="139" x2="575.2" y2="139.5"/>
		<g>
			<polygon class="st5" points="640.4,135.7 643.8,139 640.4,142.4 643.3,142.4 646.7,139 643.2,135.6 			"/>
		</g>
		<g>
			<rect x="574.2" y="133" transform="matrix(1 -6.927535e-03 6.927535e-03 1 -0.9526 3.9878)" class="st5" width="2" height="13"/>
		</g>
	</g>
</g>
<text transform="matrix(1 0 0 1 530.6567 144.8862)" class="st15 st16">White</text>
<text transform="matrix(1 0 0 1 580.6567 222.8862)" class="st15 st16">Black</text>
<text transform="matrix(1 0 0 1 529.6567 379.8862)" class="st15 st16">Asian</text>
<g>
	<g>
		<line class="st2" x1="544.9" y1="466" x2="574.7" y2="466"/>
		<g>
			<polygon class="st3" points="548.9,469.4 545.5,466 548.9,462.6 546,462.6 542.7,466 546,469.4 			"/>
		</g>
		<g>
			<rect x="573.7" y="459.5" class="st3" width="2" height="13"/>
		</g>
	</g>
</g>
<text transform="matrix(1 0 0 1 582.6567 470.8862)" class="st15 st17">Female</text>
<text transform="matrix(1 0 0 1 535.6567 560.8862)" class="st15 st17">Male</text>
<text transform="matrix(0.9717 0 0 1 652.6558 142.7686)" class="st18 st19">20%</text>
<text transform="matrix(1 0 0 1 481.6558 292.9629)" class="st18 st16">-14%</text>
<text transform="matrix(1 0 0 1 585.6558 380.9629)" class="st18 st16">1%</text>
<text transform="matrix(1 0 0 1 513.6558 470.9629)" class="st18 st16">-8%</text>
<text transform="matrix(1 0 0 1 610.6558 560.9629)" class="st18 st16">8%</text>
<g>
	<line class="st1" x1="544.7" y1="219" x2="573.7" y2="219"/>
	<g>
		<line class="st8" x1="546.9" y1="219" x2="572.7" y2="219"/>
		<g>
			<polygon class="st1" points="550.9,222.4 547.5,219 550.9,215.6 548,215.6 544.7,219 548,222.4 			"/>
		</g>
		<g>
			<rect x="571.7" y="212.5" class="st1" width="2" height="13"/>
		</g>
	</g>
</g>
<text transform="matrix(1 0 0 1 513.6558 224.9629)" class="st18 st16">-6%</text>
<g>
	<line class="st1" x1="582.7" y1="376" x2="572.7" y2="376.3"/>
	<g>
		<line class="st4" x1="580.4" y1="376.1" x2="573.7" y2="376.2"/>
		<g>
			<polygon class="st5" points="576.3,372.8 579.8,376.1 576.5,379.5 579.4,379.5 582.7,376 579.2,372.7 			"/>
		</g>
		<g>
			
				<rect x="572.7" y="369.7" transform="matrix(0.9997 -2.497847e-02 2.497847e-02 0.9997 -9.2185 14.4463)" class="st5" width="2" height="13"/>
		</g>
	</g>
</g>
<g>
	<g>
		<line class="st4" x1="603.4" y1="557" x2="573.7" y2="557"/>
		<g>
			<polygon class="st5" points="599.4,553.6 602.8,557 599.4,560.4 602.3,560.4 605.7,557 602.3,553.6 			"/>
		</g>
		<g>
			<rect x="572.7" y="550.5" class="st5" width="2" height="13"/>
		</g>
	</g>
</g>
<polygon class="st9" points="376.8,612.3 387.3,606.2 387.3,618.3 "/>
<rect x="394.3" y="604.2" class="st6" width="180" height="15.8"/>
<text transform="matrix(1 0 0 1 394.3115 617.1201)" class="st20 st21">UNDERREPRESENTED</text>
<polygon class="st10" points="758.9,611.3 748.3,617.3 748.3,605.2 "/>
<rect x="581.3" y="604.2" class="st6" width="172" height="21.7"/>
<text transform="matrix(1 0 0 1 581.3115 617.1201)" class="st20 st21">OVERREPRESENTED</text>
<line class="st0" x1="573.2" y1="589.5" x2="573.2" y2="625.5"/>
</svg>
